<?xml version="1.0" encoding="UTF-8"?>
<svg
xmlns="http://www.w3.org/2000/svg"
xmlns:xlink="http://www.w3.org/1999/xlink"
width="3700" height="4500"
viewBox="-700 -1500 3700 4500"
>
    <title>Guangzhou Metro Map in London Style (2024) with PRDIR</title>

    <style type="text/css">
        .LineDiagram {fill:none;stroke-width:6}
        .NonMetro {stroke:#fff;stroke-width:2}
        .Railway {stroke-dasharray:8,14;stroke-width:3.5;stroke:#fff}
        .Branch {stroke-dasharray:3.5,3.5;stroke-width:3.5;stroke:#fff}
        .DumbbellBG {stroke:#000;stroke-width:9}
        .DumbbellFG {stroke:#fff;stroke-width:3}
        .PaidTunnel {fill:none;stroke:#0019A8;stroke-width:2}
        .RiverBG {fill:none;stroke-width:15;stroke:#00ABE7}
        .RiverFG {fill:none;stroke-width:14;stroke:#D4EDFC}
        .Sea {stroke-width:0.5;stroke:#00ABE7;fill:#D4EDFC}
        .Island {stroke-width:0.5;stroke:#00ABE7;fill:#fff}
        .FlagBox {fill:none;stroke-width:8}
        .FlagBoxNameEN {
            font-family:Arial,"Hiragino Mincho ProN","PingFang HK","Meiryo UI",Meiryo,"Microsoft Jhenghei UI","Arial Unicode MS",sans-serif;
            font-weight:bold;
            alignment-baseline:middle;
            text-anchor:middle;
            font-size:4.5pt;
        }
        .FlagBoxNameZH {
            font-family:Arial,"Hiragino Mincho ProN","PingFang HK","Meiryo UI",Meiryo,"Microsoft Jhenghei UI","Arial Unicode MS",sans-serif;
            font-weight:bold;
            alignment-baseline:central;
            text-anchor:middle;
            font-size:3.7pt;
        }
        .StationTick {fill:none;stroke-width:4}
        .StnNameEN {
            font-family:Arial,"Hiragino Mincho ProN","PingFang HK","Meiryo UI",Meiryo,"Microsoft Jhenghei UI","Arial Unicode MS",sans-serif;
            fill:#0019A8;
            font-weight:bold;
            alignment-baseline:middle;
        }
        .StnNameZH {
            font-family:Arial,"Hiragino Mincho ProN","PingFang HK","Meiryo UI",Meiryo,"Microsoft Jhenghei UI","Arial Unicode MS",sans-serif;
            fill:#0019A8;
            font-weight:bold;
            alignment-baseline:central;
        }
        .cgz1 {stroke:#F3D03E}
        .cgz2 {stroke:#00629B}
        .cgz3 {stroke:#ECA154}
        .cgz4 {stroke:#00843D}
        .cgz5 {stroke:#C5003E}
        .cgz6 {stroke:#80225F}
        .cgz7 {stroke:#97D700}
        .cgz8 {stroke:#008C95}
        .cgz9 {stroke:#71CC98}
        .cgz10 {stroke:#7D9BC1}
        .cgz11 {stroke:#470A68}
        .cgz12 {stroke:#59621D}
        .cgz13 {stroke:#8E8C13}
        .cgz14 {stroke:#81312F}
        .cgz18 {stroke:#D48BC8}
        .cgz19 {stroke:#BB29BB}
        .cgz21 {stroke:#201747}
        .cgz22 {stroke:#041E42}
        .cgf {stroke:#C4D600}
        .cgzapm {stroke:#00B5E2}
        .cgzthz1 {stroke:#44A729}
        
        .cunknown {stroke:#999999}
        .chsr {stroke:#F47920}
        .cprdir {stroke:#2F8072}

        .cfs1 {stroke:#C4D600}
        .cfs2 {stroke:#009900}
        .cfs3 {stroke:#0000FF}
        .cfs4 {stroke:#FF00FF}
        .cfs6 {stroke:#FFb81D}
        .cfs9 {stroke:#A25EB5}
        .cfs11 {stroke:#6600CC}
        .cfs13 {stroke:#32B7EA}
        
        .csz1 {stroke:#00B140}
        .csz2 {stroke:#B94700}
        .csz3 {stroke:#00A9E0}
        .csz4 {stroke:#DA291C}
        .csz5 {stroke:#A05EB5}
        .csz6 {stroke:#00C7B1}
        .csz7 {stroke:#0033A0}
        .csz8 {stroke:#E45DBF}
        .csz9 {stroke:#7B6469}
        .csz10 {stroke:#0092BC}
        .csz11 {stroke:#672146}
        .csz12 {stroke:#A192B2}
        .csz13 {stroke:#DE7C00}
        .csz14 {stroke:#919D9D}
        .csz15 {stroke:#84BD00}
        .csz16 {stroke:#F67599}
        .csz20 {stroke:#FFD700}

        .ctwl {stroke:#E2231A}
        .cktl {stroke:#00AF41}
        .cisl {stroke:#0071CE}
        .ctkl {stroke:#A35EB5}
        .ctcl {stroke:#F38B00}
        .cdrl {stroke:#E777CB}
        .cael {stroke:#007078}
        .csile {stroke:#B6BD00}
        .csilw {stroke:#9182C2}
        .cekl {stroke:#00FF00}
        .cerl {stroke:#61B4E4}
        .cwrl {stroke:#B6008D}
        .cmol {stroke:#9A3820}
        .cnol {stroke:#FF0066}
        .c360 {stroke:#94989A}
        .clrl {stroke:#CD9700}
        .cefls {stroke:#000000}

        .TfLLU {fill:#0019A8}
        .CorporateGrey {fill:#868F98}
    </style>

    <defs>
        <path id="st" class="StationTick" d="M 2,0 H 7"/>
        <path id="term" class="StationTick" d="M -7,0 H 7"/>
        <g id="int">
            <circle cx="0" cy="0" r="9" fill="#000"/>
            <circle cx="0" cy="0" r="6" fill="#fff"/>
        </g>
        <path id="flagbox" class="FlagBox" d="M -30,0 H 30"/>

        <use xlink:href="#st" id="stgz1" class="cgz1"/>
        <use xlink:href="#st" id="stgz2" class="cgz2"/>
        <use xlink:href="#st" id="stgz3" class="cgz3"/>
        <use xlink:href="#st" id="stgz4" class="cgz4"/>
        <use xlink:href="#st" id="stgz5" class="cgz5"/>
        <use xlink:href="#st" id="stgz6" class="cgz6"/>
        <use xlink:href="#st" id="stgz7" class="cgz7"/>
        <use xlink:href="#st" id="stgz8" class="cgz8"/>
        <use xlink:href="#st" id="stgz10" class="cgz10"/>
        <use xlink:href="#st" id="stgz11" class="cgz11"/>
        <use xlink:href="#st" id="stgz12" class="cgz12"/>
        <use xlink:href="#st" id="stgz13" class="cgz13"/>
        <use xlink:href="#st" id="stgz14" class="cgz14"/>
        <use xlink:href="#st" id="stgz18" class="cgz18"/>
        <use xlink:href="#st" id="stgz19" class="cgz19"/>
        <use xlink:href="#st" id="stgz22" class="cgz22"/>

        <use xlink:href="#st" id="stsz1" class="csz1"/>
        <use xlink:href="#st" id="stsz2" class="csz2"/>
        <use xlink:href="#st" id="stsz3" class="csz3"/>
        <use xlink:href="#term" id="termsz3" class="csz3"/>
        <use xlink:href="#st" id="stsz4" class="csz4"/>
        <use xlink:href="#st" id="stsz5" class="csz5"/>
        <use xlink:href="#st" id="stsz6" class="csz6"/>
        <use xlink:href="#st" id="stsz7" class="csz7"/>
        <use xlink:href="#term" id="termsz7" class="csz7"/>
        <use xlink:href="#st" id="stsz8" class="csz8"/>
        <use xlink:href="#st" id="stsz9" class="csz9"/>
        <use xlink:href="#term" id="termsz9" class="csz9"/>
        <use xlink:href="#st" id="stsz10" class="csz10"/>
        <use xlink:href="#st" id="stsz11" class="csz11"/>
        <use xlink:href="#st" id="stsz12" class="csz12"/>
        <use xlink:href="#term" id="termsz12" class="csz12"/>
        <use xlink:href="#st" id="stsz13" class="csz13"/>
        <use xlink:href="#term" id="termsz13" class="csz13"/>
        <use xlink:href="#st" id="stsz14" class="csz14"/>
        <use xlink:href="#st" id="stsz15" class="csz15"/>
        <use xlink:href="#st" id="stsz17" class="cunknown"/>
        <use xlink:href="#st" id="stsz20" class="csz20"/>

        <use xlink:href="#st" id="sttwl" class="ctwl"/>
        <use xlink:href="#term" id="termtwl" class="ctwl"/>
        <use xlink:href="#st" id="stktl" class="cktl"/>
        <use xlink:href="#term" id="termktl" class="cktl"/>
        <use xlink:href="#st" id="stisl" class="cisl"/>
        <use xlink:href="#term" id="termisl" class="cisl"/>
        <use xlink:href="#st" id="sttkl" class="ctkl"/>
        <use xlink:href="#term" id="termtkl" class="ctkl"/>
        <use xlink:href="#st" id="sttcl" class="ctcl"/>
        <use xlink:href="#term" id="termtcl" class="ctcl"/>
        <use xlink:href="#st" id="stael" class="cael"/>
        <use xlink:href="#term" id="termael" class="cael"/>
        <use xlink:href="#term" id="termdrl" class="cdrl"/>
        <use xlink:href="#st" id="stsile" class="csile"/>
        <use xlink:href="#term" id="termsile" class="csile"/>
        <use xlink:href="#st" id="stsilw" class="csilw"/>
        <use xlink:href="#st" id="stekl" class="cekl"/>
        <use xlink:href="#st" id="sterl" class="cerl"/>
        <use xlink:href="#term" id="termerl" class="cerl"/>
        <use xlink:href="#st" id="stwrl" class="cwrl"/>
        <use xlink:href="#st" id="stmol" class="cmol"/>
        <use xlink:href="#term" id="termmol" class="cmol"/>
        <use xlink:href="#st" id="stnol" class="cnol"/>
        <use xlink:href="#term" id="termnol" class="cnol"/>
        <use xlink:href="#term" id="term360" class="c360"/>

        <g id="chinarail" transform="scale(0.0165) translate(-260,-305)" style="stroke:none;fill:#E60012">
            <path d="
                M169,273.5c0-19,14.7-34.8,33.7-36.3c18.9-1.5,38.1-2.2,57.4-2.2c19.3,0,38.4,0.8,57.3,2.2
                c19,1.5,33.7,17.3,33.7,36.3v47.3l-51.3,14.7c-11.2,3.2-18.9,13.4-18.9,25v147.8c0,17.4,12.2,32.3,29.3,35.7l110.6,22.1
        	    c4.9,1,8.4,5.2,8.4,10.2V599H91v-22.7c0-5,3.5-9.2,8.4-10.2L209.9,544c17-3.4,29.3-18.3,29.3-35.7V360.5c0-11.6-7.7-21.8-18.9-25
	            L169,320.8V273.5z M309.4,31.7c0.2-1.2,0.3-2.4,0.3-3.6c0-14-11.1-25.4-24.9-26C276.6,1.4,268.3,1,260,1c-8.3,0-16.6,0.4-24.7,1.1
	            c-13.9,0.6-24.9,12-24.9,26c0,1.2,0.1,2.5,0.3,3.6C90.6,54.8,0,160.3,0,287c0,97.2,53.4,182,132.4,226.6l36.8-48.1
	            C104.3,432.4,59.8,364.9,59.8,287c0-110.6,89.6-200.2,200.2-200.2S460.2,176.4,460.2,287c0,77.9-44.5,145.4-109.4,178.5
	            c15,19.6,25.6,33.5,36.8,48.1C466.6,469,520,384.2,520,287C520,160.3,429.4,54.8,309.4,31.7z
            "/>
        </g>
        <g id="prdir" fill="#2f8072" stroke="none" transform="scale(0.045) translate(-120,-110)">
            <path d="m 123.26128,86.978581 c 18.82577,44.553579 49.3883,83.668249 88.99504,112.823219 l 13.14286,9.67529 19.35056,-26.28579 -13.14288,-9.6753 c -48.90863,-36.00213 -82.0864,-89.248139 -93.06868,-148.784267 -0.41821,3.388459 -0.84067,6.776544 -1.38405,10.135115 -0.71479,4.414539 -1.53825,8.802699 -2.4665,13.159243 -0.92827,4.356522 -1.96142,8.681077 -3.09918,12.972597 -1.13783,4.29153 -2.37906,8.548725 -3.72263,12.768192 -1.34347,4.219477 -2.7893,8.401749 -4.33462,12.542101 -0.0843,0.225621 -0.18516,0.444203 -0.26983,0.6696 z"/>
            <path d="M 75.718442,153.26162 C 104.98636,114.75421 123.69429,68.77552 129.26191,19.911403 L 131.11,3.6962133 98.679701,0 96.831616,16.215189 c -6.8752,60.340224 -36.536917,115.622081 -82.703477,154.785941 3.146986,-1.32416 6.295477,-2.64496 9.478901,-3.84526 4.184491,-1.57783 8.400149,-3.04828 12.640565,-4.41206 4.240448,-1.3638 8.505312,-2.62074 12.793675,-3.77041 4.288405,-1.14967 8.598496,-2.19255 12.926763,-3.12796 4.328223,-0.93542 8.675167,-1.76363 13.035327,-2.48458 0.237558,-0.0397 0.477344,-0.0609 0.715083,-0.0992 z"/>
            <path d="m 157.1558,160.72798 c -47.99747,-5.97319 -97.153016,0.93741 -142.205315,20.66035 L 0,187.93277 13.088864,217.83374 28.039371,211.2893 c 55.633098,-24.35505 118.334389,-26.46483 175.385289,-6.20773 -2.72531,-2.05645 -5.44858,-4.11594 -8.0852,-6.26617 -3.46574,-2.82628 -6.85428,-5.73346 -10.163,-8.71565 -3.30877,-2.98217 -6.53736,-6.03921 -9.68506,-9.17031 -3.14766,-3.13109 -6.2139,-6.33465 -9.19632,-9.60797 -2.98233,-3.27329 -5.88147,-6.61643 -8.69438,-10.02492 -0.15331,-0.18587 -0.29217,-0.38243 -0.44495,-0.5685 z"/>
        </g>
    </defs>

    <g id="cht_switch" style="opacity:0;cursor:pointer">
		<g id="cht_switch_base">
			<rect x="-690" y="-1040" width="10" height="10" style="fill:#fff;stroke:#000;stroke-width:1"/>
			<text x="-675" y="-1030" font-size="14px" class="stname">Traditional Chinese</text>
		</g>
		<g id="cht_switch_over" style="visibility:hidden;opacity:0">
            <use xlink:href="#enabled" x="-690" y="-1040"/>
			<text x="-675" y="-1030" style="stroke:#243588;stroke-width:0.5;font-size:14px" class="stname">Traditional Chinese</text>
			<set
			begin="cht_switch_base.click"
			end="cht_switch_over.click"
			attributeName="visibility" attributeType="CSS" to="visible"/>
			<set
			begin="cht_switch_base.click"
			end="cht_switch_over.click"
			attributeName="opacity" attributeType="CSS" to="1"/>
		</g>
		<animate
		attributeName="opacity" attributeType="CSS" values="0; 1" keyTimes="0; 1" dur="0.5s" fill="freeze"/>
	</g>
    <g transform="translate(2000,2000)">
        <!--Sea of SZ and HK-->
    </g>

    <g class="RiverBG">
        <g id="Pearl_River">
            <!--TextGap: 18 LineGap:26-->
            <path id="PearlRiver_Nansha" d="
                M -200,164
                H -20 a 21,21 0 0,0 15,-6
                L 29,124 a 21,21 0 0,1 15,-6
                H 500
            "/>
            <path id="Houhangdao" d="
                M -200,164 a 21,21 0 0,1 15,6
                L 211,566 a 21,21 0 0,0 15,6
                H 500
            "/>
        </g>
    </g>
    <use xlink:href="#Pearl_River" class="RiverFG"/>

    <g class="LineDiagram">
        <path id="GZ1_route" class="cgz1" d="
            M -200,441
            V 21 a 21,21 0 0,1 21,-21
            H 350 a 21,21 0 0,0 15,-6
            L 423,-64 a 21,21 0 0,1 15,-6
            H 506 a 21,21 0 0,0 21,-21
            V -188 a 21,21 0 0,0 -21,-21
            H 448
        "/>
        <path id="GZ2_route" class="cgz2" d="
            M 94,-377
            L 6,-289 a 21,21 0 0,0 -6,15
            V 102 a 21,21 0 0,0 6,15
            L 305,416 a 21,21 0 0,1 6,15
            V 585 a 21,21 0 0,1 -6,15
            L 230,675 a 21,21 0 0,0 -6,15
            V 857 a 21,21 0 0,1 -6,15
            L 151.5,937.5
        "/>
        <path id="GZ3_route" class="cgz3" d="
            M 442,-325 a 21,21 0 0,1 6,15
            V 806 a 21,21 0 0,0 6,15
            L 518,885
        "/>
        <path id="GZ5_route" class="cgz5" d="
            M -89,-190
            H 65 a 21,21 0 0,1 15,6
            L 157,-107 a 21,21 0 0,0 15,6
            H 319 a 21,21 0 0,1 21,21
            V 49 a 21,21 0 0,0 21,21
            H 700
        "/>
        <path id="GZ6_route" class="cgz6" d="
            M -150,120
            H -43 a 21,21 0 0,0 15,-6
            L 10,76 a 21,21 0 0,1 15,-6
            H 189 a 21,21 0 0,0 21,-21
            V -111 a 21,21 0 0,1 21,-21
            H 268 a 21,21 0 0,0 15,-6
            L 418,-273 a 21,21 0 0,1 15,-6
            H 448
        "/>
        <path id="GZ7_route" class="cgz7" d="
            M -141,1200
            V 1029 a 21,21 0 0,1 21,-21
            H 80 a 21,21 0 0,0 15,-6
            L 220,877 a 21,21 0 0,1 30,0
            L 323,950 a 21,21 0 0,0 15,6
            H 438 a 21,21 0 0,0 15,-6
            L 662,741 a 21,21 0 0,1 15,-6
            H 800
        "/>
        <path id="GZ8_route" class="cgz8" d="
            M -171,-400
            V -200 a 21,21 0 0,0 6,15
            L -126,-146 a 21,21 0 0,1 6,15
            V 142 a 21,21 0 0,0 6,15
            L 70,341 a 21,21 0 0,0 30,0
            L 175,266 a 21,21 0 0,1 15,-6
            H 303 a 21,21 0 0,0 15,-6
            L 329,243 a 21,21 0 0,1 15,-6
            H 528 a 21,21 0 0,0 15,-6
            L 547,227 a 21,21 0 0,1 15,-6
            H 700
        "/>
        <path id="GZ10_route" class="cgz10" d="
            M -198.5,438.5
            L -103,534 a 21,21 0 0,0 15,6
            H 222 a 21,21 0 0,0 21,-21
            V 431 a 21,21 0 0,1 6,-15
            L 287,378 a 21,21 0 0,0 6,-15
            V 212 a 21,21 0 0,0 -6,-15
            L 185,95 a 21,21 0 0,1 -6,-15
            V 60 a 21,21 0 0,1 21,-21
            H 350 a 21,21 0 0,0 21,-21
            V -65 a 21,21 0 0,1 21,-21
            H 583 a 21,21 0 0,0 15,-6
            L 746,-240
        "/>
        <path id="GZ11_route" class="cgz11" d="
            M -212,-70
            L -295,13 a 21,21 0 0,0 -6,15
            V 204 a 21,21 0 0,0 21,21
            H -190 a 21,21 0 0,1 15,6
            L -5,401 a 21,21 0 0,0 15,6
            H 145 a 21,21 0 0,0 15,-6
            L 235,326 a 21,21 0 0,1 15,-6
            H 360 a 21,21 0 0,1 15,6
            L 413,364 a 21,21 0 0,0 15,6
            H 600

            M -213,-71
            L -212,-70 a 21,21 0 0,1 15,-6
            H -101 a 21,21 0 0,0 15,-6
            L 46,-214 a 21,21 0 0,1 15,-6
            H 500
            M 621,-156 a 21,21 0 0,1 15,6
            L 694,-92 a 21,21 0 0,0 15,6
            H 758 a 21,21 0 0,1 21,21
            V 70
        "/>
        <path id="GZ12_route" class="cgz12" d="
            M -111,-367
            H 94 a 21,21 0 0,1 21,21
            V -123 a 21,21 0 0,0 6,15
            L 134,-95 a 21,21 0 0,1 6,15
            V 22 a 21,21 0 0,0 6,15
            L 189,80 a 21,21 0 0,0 15,6
            H 298 a 21,21 0 0,1 15,6
            L 415,194 a 21,21 0 0,0 15,6
            H 472 a 21,21 0 0,1 15,6
            L 568,287
        "/>
        <path id="GZ13_route" class="cgz13" d="
            M -195,-126
            L -145,-76 a 21,21 0 0,0 15,6
            H 394 a 21,21 0 0,1 15,6
            L 423,-50 a 21,21 0 0,0 15,6
            H 484 a 21,21 0 0,1 15,6
            L 531,-6 a 21,21 0 0,0 15,6
            H 600
        "/>
        <path id="GZ14_route" class="cgz14" d="
            M 11,-179
            V -208 a 21,21 0 0,0 -6,-15
            L -20,-248 a 21,21 0 0,1 -6,-15
            V -308 a 21,21 0 0,1 6,-15
            L 54,-397
        "/>
        <path id="GZ18_route" class="cgz18" d="
            M 459,-220
            V -210 a 21,21 0 0,0 6,15
            L 515,-144 a 21,21 0 0,1 6,15
            V 96 a 21,21 0 0,0 6,15
            L 597,181 a 21,21 0 0,1 6,15
            V 705 a 21,21 0 0,0 6,15
            L 709,820
        "/>
        <path id="GZ19_route" class="cgz19" d="
            M -200,219
            H -7 a 21,21 0 0,0 15,-6
            L 65,156 a 21,21 0 0,1 15,-6
            H 400
            M 400,206
            H 625 a 21,21 0 0,0 21,-21
            V 25 a 21,21 0 0,1 6,-15
            L 762,-100
        "/>
        <path id="GZ21_route" class="cgz21" d="
            M 785,0
            V -65 a 21,21 0 0,1 21,-21
        "/>
        <path id="GZ22_route" class="cgz22" d="
            M -215,207
            V 250
            M -201.5,443.5
            L -41,604 a 21,21 0 0,0 15,6
            H 100
            M 147,700
            L 47,800 a 21,21 0 0,0 0,30
            L 255,1038
        "/>
        <path id="GZAPM_route" class="cgzapm" d="
            M 494,-140
            V 167
        "/>
        <path id="GF_route" class="cgf" d="
            M -300,441
            H -176 a 21,21 0 0,0 15,-6
            L -60,326 a 21,21 0 0,1 15,-6
            H 32 a 21,21 0 0,1 15,6
            L 156,435 a 21,21 0 0,0 15,6
            H 321 a 21,21 0 0,1 15,6
            L 336,447
            L 423,534 a 21,21 0 0,0 15,6
            H 448
        "/>
        <g class="cgzthz1">
            <path id="GZTHZ1_route" d="
                M 425,144 H 550
            "/>
        </g>
        <use xlink:href="#GZTHZ1_route" class="NonMetro"/>

        <path id="FS2_route" class="cfs2" d="
            M -200,885
            H 85 a 21,21 0 0,1 15,6
            L 151.5,942.5
        "/>
        <path id="FS4_route" class="cfs4" d="
            M -200,815
            H -25
        "/>
        <path id="FS11_route" class="cfs11" d="
            M -25,381
            V 1100
        "/>

        <g class="cunknown">
            <path id="Guangshen_Railway" d="
                M -15,-205
                H 66 a 21,21 0 0,1 15,6
                L 112,-168 a 21,21 0 0,0 15,6
                H 283 a 21,21 0 0,0 15,-6
                L 358,-229 a 21,21 0 0,1 15,-6
                H 500
            "/>
            <path id="Guangmao_Railway" d="
                M -15,-205
                H -60 a 21,21 0 0,0 -15,6
                L -225,-49
            "/>
        </g>
        <use xlink:href="#Guangshen_Railway" class="Railway"/>
        <use xlink:href="#Guangmao_Railway" class="Railway"/>
        <g class="cprdir">
            <path id="Guangqing_IC" d="
                M -15,-205
                H -75 a 21,21 0 0,1 -21,-21
                V -400
            "/>
            <path id="FS_DG_IC" d="
                M 418,807
                L 618,1007
            "/>
            <path id="GZ_FS_Circle_Line" d="
                M -300,1030
                H 76 a 21,21 0 0,0 15,-6
                L 389,726 a 21,21 0 0,1 15,-6
                H 500
            "/>
            <path id="GZ_ZH_IC" d="
                M 153,962
                L 253,1062
            "/>
        </g>
        <use xlink:href="#Guangqing_IC" class="Railway"/>
        <use xlink:href="#FS_DG_IC" class="Railway"/>
        <use xlink:href="#GZ_FS_Circle_Line" class="Railway"/>
        <use xlink:href="#GZ_ZH_IC" class="Railway"/>
        <g class="chsr">
            <path id="BJ_GZ_HSR" d="
                M -47,762
                L 153,962
            "/>
        </g>
        <use xlink:href="#BJ_GZ_HSR" class="Railway"/>
    </g>

    <g id="Guangshen_Railway_station_icons">
        <path class="PaidTunnel" d="
            M -111,-367 L -96,-352
            M -15,-205 L 0,-190
            M 474,-235 L 459,-220
        "/>
        <use xlink:href="#int" transform="translate(-96,-352)" id="Tangxi"/>
        <use xlink:href="#int" x="-15" y="-205" id="Guangzhou"/>
        <use xlink:href="#int" x="474" y="-235" id="Guangzhoudong"/>
    </g>
    <g id="FS_DG_IC_station_icons">
        <path class="PaidTunnel" d="
            M 518,907 V 885
        "/>
        <use xlink:href="#int" transform="translate(518,907)" id="Chimelong"/>
    </g>
    <g id="GZ_FS_Circle_Line_station_icons">
        <path class="PaidTunnel" d="
            M 153,962 V 940
            M 463,720 L 448,735
        "/>
        <use xlink:href="#int" transform="translate(153,962)" id="Guangzhou_South"/>
        <use xlink:href="#int" transform="translate(463,720)" id="Dashi"/>
    </g>
    <g id="GZ1_station_icons">
        <use xlink:href="#int" x="-200" y="441" id="Xilang"/>
        <use xlink:href="#int" x="-200" y="222" id="Fangcun"/>
        <use xlink:href="#int" x="-120" y="0" id="Chen_Clan_Academy"/>
        <use xlink:href="#stgz1" transform="translate(-60,0)rotate(-90)" id="Ximenkou"/>
        <use xlink:href="#int" x="0" y="0" id="Gongyuanqian"/>
        <use xlink:href="#stgz1" transform="translate(70,0)rotate(-90)" id="Peasants_Movement_Institute"/>
        <use xlink:href="#int" x="140" y="0" id="Martyrs_Park"/>
        <use xlink:href="#int" x="210" y="0" id="Dongshankou"/>
        <use xlink:href="#int" x="340" y="0" id="Yangji"/>
        <use xlink:href="#int" x="448" y="-70" id="Tiyu_Xilu"/>
        <use xlink:href="#int" x="448" y="-209" id="Guangzhou_East_Railway_Station"/>
    </g>
    <g id="GZ2_station_icons">
        <use xlink:href="#int" x="84" y="-367" id="Baiyun_Cultural_Square"/>
        <use xlink:href="#stgz2" transform="translate(54,-337)rotate(45)" id="Baiyun_Park"/>
        <use xlink:href="#stgz2" transform="translate(20,-303)rotate(45)" id="Feixiang_Park"/>
        <use xlink:href="#stgz2" transform="translate(0,-250)" id="Sanyuanli"/>
        <use xlink:href="#int" x="0" y="-190" id="Guangzhou_Railway_Station"/>
        <use xlink:href="#stgz2" transform="translate(0,-130)" id="Yuexiu_Park"/>
        <use xlink:href="#int" x="0" y="-70" id="SYS_Memorial_Hall"/>
        <!--Gongyuanqian GZ1-->
        <use xlink:href="#int" x="0" y="86" id="Haizhu_Square"/>
        <use xlink:href="#int" transform="translate(55,166)" id="The_2nd_Workers_Cultural_Palace"/>
        <use xlink:href="#stgz2" transform="translate(110,221)rotate(-45)" id="Jiangnanxi"/>
        <use xlink:href="#int" transform="translate(165,276)" id="Changgang"/>
        <use xlink:href="#int" transform="translate(225,336)" id="Jiangtai_Lu"/>
        <use xlink:href="#int" transform="translate(277,388)" id="Dongxiaonan"/>
        <use xlink:href="#int" transform="translate(311,441)" id="Nanzhou"/>
        <use xlink:href="#stgz2" transform="translate(295,610)rotate(45)" id="Luoxi"/>
        <use xlink:href="#stgz2" transform="translate(240,665)rotate(45)" id="Nanpu"/>
        <use xlink:href="#stgz2" transform="translate(224,770)rotate(0)" id="Huijiang"/>
        <use xlink:href="#int" transform="translate(208,885)" id="Shibi"/>
        <use xlink:href="#int" transform="translate(153,940)" id="Guangzhou_South_Railway_Station"/>
    </g>
    <g id="GZ3_station_icons">
        <use xlink:href="#stgz3" transform="translate(448,-300)" id="Meihuayuan"/>
        <use xlink:href="#int" x="448" y="-279" id="Yantang"/>
        <!--Guangzhou East Railway Station GZ1-->
        <path class="PaidTunnel" d="
            M 448,-140 H 494
        "/>
        <use xlink:href="#int" x="448" y="-140" id="Linhexi"/>
        <!--Tiyu Xilu GZ1-->
        <use xlink:href="#int" x="448" y="70" id="Zhujiang_New_Town"/>
        <path class="PaidTunnel" d="
            M 448,167 H 494
            M 448,167 L 425,144
        "/>
        <use xlink:href="#int" x="448" y="167" id="Canton_Tower"/>
        <!--Kecun GZ8-->
        <use xlink:href="#int" x="448" y="370" id="Datang"/>
        <use xlink:href="#int" transform="translate(448,540)" id="Lijiao"/>
        <use xlink:href="#stgz3" transform="translate(448,610)" id="Xiajiao"/>
        <use xlink:href="#int" transform="translate(448,735)" id="Dashi"/>
        <use xlink:href="#int" transform="translate(518,885)" id="Hanxi_Changlong"/>
    </g>
    <g id="GZ5_station_icons">
        <use xlink:href="#int" x="-286" y="0" id="Zhongshanba"/>
        <use xlink:href="#stgz5" transform="translate(90,-174)rotate(135)" id="Xiaobei"/>
        <use xlink:href="#int" x="140" y="-124" id="Taojin"/>
        <use xlink:href="#int" x="210" y="-101" id="Ouzhuang"/>
        <use xlink:href="#stgz5" transform="translate(309,-101)rotate(-90)" id="Zoo"/>
        <!--Yangji GZ1-->
        <use xlink:href="#stgz5" transform="translate(371,70)rotate(90)" id="Wuyangcun"/>
        <!--Zhujiang New Town GZ3-->
        <use xlink:href="#stgz5" transform="translate(576,70)rotate(90)" id="Liede"/>
        <use xlink:href="#int" x="646" y="70" id="Tancun"/>
        <use xlink:href="#int" x="779" y="70" id="Yuancun"/>
    </g>
    <g id="GZ6_station_icons">
        <use xlink:href="#int" x="-120" y="120" id="Cultural_Park"/>
        <use xlink:href="#int" x="179" y="70" id="Donghu"/>
        <use xlink:href="#stgz6" transform="translate(241,-132)rotate(-90)" id="Huanghuagang"/>
        <!--Shahe GZ11-->
        <use xlink:href="#stgz6" transform="translate(408,-244)rotate(-135)" id="Tianpingjia"/>
    </g>
    <g id="GZ7_station_icons">
        <use xlink:href="#int" x="-141" y="1045" id="Chencun"/>
        <use xlink:href="#int" x="-25" y="1008" id="Chencun_Bei"/>
        <!--Guangzhou South Railway Station GZ2-->
        <!--Shibi GZ2-->
        <use xlink:href="#stgz7" transform="translate(313,940)rotate(135)" id="Xiecun"/>
        <use xlink:href="#stgz7" transform="translate(428,956)rotate(90)" id="Zhongcun"/>
        <!--Hanxi Changlong GZ3-->
        <use xlink:href="#int" x="646" y="757" id="Nancun_Wanbo"/>
    </g>
    <g id="GZ8_station_icons">
        <use xlink:href="#int" transform="translate(-171,-367)" id="Dekang"/>
        <use xlink:href="#int" x="-120" y="-73" id="Caihongqiao"/>
        <!--Chen Clan Academy GZ1-->
        <use xlink:href="#stgz8" transform="translate(-120,60)" id="Hualin_Temple"/>
        <!--Cultural Park GZ6-->
        <use xlink:href="#int" x="-52" y="219" id="Tongfuxi"/>
        <use xlink:href="#stgz8" transform="translate(1,272)rotate(-45)" id="Fenghuang_Xincun"/>
        <use xlink:href="#int" x="58.5" y="333.5" id="Shayuan"/>
        <use xlink:href="#stgz8" transform="translate(202,260)rotate(-90)" id="Xiaogang"/>
        <use xlink:href="#stgz8" transform="translate(284,260)rotate(-90)" id="SYSU"/>
        <use xlink:href="#stgz8" transform="translate(366,237)rotate(-90)" id="Lujiang"/>
        <use xlink:href="#int" x="448" y="237" id="Kecun"/>
        <use xlink:href="#int" transform="translate(518,237)rotate(-90)" id="Chigang"/>
        <path class="PaidTunnel" d="
            M 588,221 L 603,206
        "/>
        <use xlink:href="#int" x="588" y="221" id="Modiesha"/>
    </g>
    <g id="GZ10_station_icons">
        <use xlink:href="#int" x="-25" y="540" id="GISE_New_Town"/>
        <use xlink:href="#stgz10" transform="translate(216,449)rotate(-135)" id="Daganwei"/>
        <!--Shixi GF-->
        <use xlink:href="#stgz10" transform="translate(293,290)" id="SYSU_South_Entrance"/>
        <use xlink:href="#int" x="240" y="150" id="Binjiang_Donglu"/>
        <!--Donghu GZ6-->
        <use xlink:href="#stgz10" transform="translate(240,39)rotate(90)" id="Shuqian_Lu"/>
        <use xlink:href="#stgz10" transform="translate(304,39)rotate(90)" id="Siyou_Xinmalu"/>
        <use xlink:href="#stgz10" transform="translate(371,8)" id="Guangzhoudadaozhong"/>
        <use xlink:href="#int" x="464" y="-86" id="Tianhe_Lu"/>
        <use xlink:href="#int" x="646" y="-140" id="SCNU"/>
    </g>
    <g id="GZ11_station_icons">
        <use xlink:href="#int" x="11" y="-179" id="Guangzhou_Railway_Station_11"/>
        <g class="DumbbellBG">
            <path id="GuangzhouRailwayStation_Interchange" d="
                M 11,-179 L 0,-190
            "/>
        </g>
        <use xlink:href="#GuangzhouRailwayStation_Interchange" class="DumbbellFG"/>
        <circle cx="11" cy="-179" r="6" fill="#fff"/>
        <circle cx="0" cy="-190" r="6" fill="#fff"/>
        <use xlink:href="#stgz11" transform="translate(71,-220)rotate(-90)" id="Ziyuangang"/>
        <use xlink:href="#int" x="115" y="-220" id="Guangyuan_Xincun"/>
        <use xlink:href="#stgz11" transform="translate(180,-220)rotate(90)" id="Dajinzhong"/>
        <use xlink:href="#stgz11" transform="translate(245,-220)rotate(-90)" id="Yuntai_Garden"/>
        <use xlink:href="#stgz11" transform="translate(310,-220)rotate(-90)" id="Tianxincun"/>
        <use xlink:href="#int" transform="translate(375,-211)" id="Shahe"/>
        <!--Guangzhou East Railway Station GZ18-->
        <!--SCNU GZ10-->
        <use xlink:href="#int" transform="translate(748,-86)" id="Huajing_Lu"/>
        <use xlink:href="#int" transform="translate(375,-211)" id="Shahe"/>
        <use xlink:href="#stgz11" transform="translate(406,320)rotate(90)" id="Shangchong_Park"/>
        <use xlink:href="#stgz11" transform="translate(335,320)rotate(90)" id="Yijing_Lu"/>
        <use xlink:href="#int" transform="translate(293,320)" id="Wufeng"/>
        <!--Yangang GF-->
        <use xlink:href="#stgz11" transform="translate(72,407)rotate(-90)" id="Nanshi_Lu"/>
        <use xlink:href="#int" transform="translate(-25,381)" id="Hedongdong"/>
        <use xlink:href="#stgz11" transform="translate(-138,284)rotate(135)" id="Fangcundadaodong"/>
        <!--Fangcun GZ1-->
        <use xlink:href="#stgz11" transform="translate(-270,225)rotate(-90)" id="Shiweitang"/>
    </g>
    <g id="GZ12_station_icons">
        <use xlink:href="#int" transform="translate(-111,-367)" id="Tangxi"/>
        <use xlink:href="#stgz12" transform="translate(-51,-367)rotate(-90)" id="Nanhang_Xincun"/>
        <!--Xinshixu GZ14-->
        <!--Baiyun Cultural Park GZ2-->
        <use xlink:href="#stgz12" transform="translate(115,-336)" id="Yunxi_Park"/>
        <use xlink:href="#stgz12" transform="translate(115,-296)" id="Xiaojinzhong"/>
        <use xlink:href="#stgz12" transform="translate(115,-256)" id="Jingyun_Lu"/>
        <!--Guangyuan Xincun GZ11-->
        <use xlink:href="#stgz12" transform="translate(115,-179)" id="Hengfu_Lu"/>
        <!--Jianshe Liumalu GZ13-->
        <!--Martyrs Park GZ1-->
        <!--Donghu GZ6-->
        <use xlink:href="#stgz12" transform="translate(263,86)rotate(90)" id="Ersha_Island"/>
        <use xlink:href="#int" transform="translate(462,203)" id="Lingnan_Square"/>
    </g>
    <g id="GZ13_station_icons">
        <use xlink:href="#stgz13" transform="translate(70,-70)rotate(-90)" id="Cangbian_Lu"/>
        <use xlink:href="#int" x="140" y="-70" id="Jianshe_Liumalu"/>
        <g class="DumbbellBG">
            <path id="Taojin_Interchange" d="
                M 140,-70 V -124
            "/>
        </g>
        <use xlink:href="#Taojin_Interchange" class="DumbbellFG"/>
        <circle cx="140" cy="-70" r="6" fill="#fff"/>
        <circle cx="140" cy="-124" r="6" fill="#fff"/>
        <use xlink:href="#stgz13" transform="translate(239,-70)rotate(90)" id="Nonglin_Xialu"/>
        <use xlink:href="#stgz13" transform="translate(309,-70)rotate(90)" id="Meidong_Lu"/>
        <path class="PaidTunnel" d="
            M 474,-44 L 494,-24
        "/>
        <use xlink:href="#int" x="474" y="-44" id="Huacheng_Square_North"/>
        <g class="DumbbellBG">
            <path id="TiyuXilu_Interchange" d="
                M 448,-70 L 464,-86
                M 448,-70 L 474,-44
            "/>
        </g>
        <use xlink:href="#TiyuXilu_Interchange" class="DumbbellFG"/>
        <circle cx="448" cy="-70" r="6" fill="#fff"/>
        <circle cx="464" cy="-86" r="6" fill="#fff"/>
        <circle cx="474" cy="-44" r="6" fill="#fff"/>
        <!--Xiancun GZ18-->
        <use xlink:href="#int" x="662" y="0" id="Racecourse"/>
    </g>
    <g id="GZ14_station_icons">
        <!--Guangzhou Railway Station GZ11-->
        <use xlink:href="#stgz14" transform="translate(-26,-273)rotate(180)" id="Lejia_Lu"/>
        <use xlink:href="#stgz14" transform="translate(-10,-333)rotate(-135)" id="Gangbei"/>
        <use xlink:href="#int" x="24" y="-367" id="Xinshixu"/>
    </g>
    <g id="GZ18_station_icons">
        <use xlink:href="#int" x="459" y="-220" id="Guangzhou_East_Railway_Station_18"/>
        <g class="DumbbellBG">
            <path id="GuangzhouEastRailwayStation_Interchange" d="
                M 459,-220 L 448,-209
            "/>
        </g>
        <use xlink:href="#GuangzhouEastRailwayStation_Interchange" class="DumbbellFG"/>
        <circle cx="459" cy="-220" r="6" fill="#fff"/>
        <circle cx="448" cy="-209" r="6" fill="#fff"/>
        <use xlink:href="#int" x="521" y="-16" id="Xiancun"/>
        <use xlink:href="#int" x="603" y="206" id="Pazhou_Xiqu"/>
        <use xlink:href="#stgz18" transform="translate(603,610)rotate(0)" id="Shaxi"/>
    </g>
    <g id="GZ19_station_icons">
        <use xlink:href="#stgz19" transform="translate(18,203)rotate(-135)" id="Hoi_Tong_Monastery"/>
        <!--Lingnan Square GZ12-->
        <!--Pazhou Xiqu GZ18-->
        <!--Tancun GZ5-->
        <!--Racecourse GZ13-->
    </g>
    <g id="GZ21_station_icons">
        <use xlink:href="#int" x="782" y="0" id="Tianhe_Park"/>
    </g>
    <g id="GZ22_station_icons">
        <use xlink:href="#int" x="-215" y="207" id="Baietan"/>
        <g class="DumbbellBG">
            <path id="Baietan_Interchange" d="
                M -215,207 L -200,222
            "/>
        </g>
        <use xlink:href="#Baietan_Interchange" class="DumbbellFG"/>
        <circle cx="-215" cy="207" r="6" fill="#fff"/>
        <circle cx="-200" cy="222" r="6" fill="#fff"/>
        <use xlink:href="#stgz22" transform="translate(77,770)rotate(45)" id="Chentougang"/>
    </g>
    <g id="GZAPM_station_icons">
        <use xlink:href="#int" x="494" y="-140" id="Linhexi"/>
        <use xlink:href="#int" x="494" y="-24" id="Huangpu_Dadao"/>
        <use xlink:href="#int" x="494" y="167" id="Canton_Tower_APM"/>
    </g>
    <g id="GF_station_icons">
        <use xlink:href="#int" x="-70" y="336" id="Shachong"/>
        <use xlink:href="#int" x="128" y="407" id="Yangang"/>
        <use xlink:href="#int" x="243" y="441" id="Shixi"/>
        <!--Nanzhou GZ2-->
        <!--Lijiao GZ3-->
    </g>
    <g id="GZTHZ1_station_icons">
        <use xlink:href="#int" x="425" y="144" id="Canton_Tower_THZ1"/>
    </g>

    <g id="FS2_station_icons">
        <use xlink:href="#int" x="-141" y="885" id="Linyue_Xi"/>
        <use xlink:href="#int" x="-25" y="885" id="Linyue_Dong"/>
        <!--Guangzhou South Railway Station GZ2-->
    </g>
    <g id="FS4_station_icons">
        <use xlink:href="#int" x="-25" y="815" id="Gangkou_Lu"/>
    </g>
    <g id="FS11_station_icons">
        <!--Hedongdong GZ11-->
        <!--Linyue Dong FS2-->
        <!--Chencun Bei GZ7-->
    </g>
    

    <g id="Station_names_EN" font-size="8.5pt" style="visibility:visible">
        <g id="GZ1_names_EN">
            <g text-anchor="start">
                <text x="-189" y="54" class="StnNameEN">Changshou<tspan x="-189" dy="12" class="StnNameEN">Road</tspan></text>
                <text x="-111" y="14" class="StnNameEN">Chen Clan<tspan x="-111" dy="12" class="StnNameEN">Academy</tspan></text>
                <text x="9" y="14" class="StnNameEN">People's<tspan x="9" dy="12" class="StnNameEN">Park</tspan></text>
                <text x="149" y="14" class="StnNameEN">Martyrs'<tspan x="149" dy="12" class="StnNameEN">Park</tspan></text>
                <text x="219" y="14" class="StnNameEN">Dongshankou</text>
            </g>
            <g text-anchor="middle">
                <text x="-60" y="-14" class="StnNameEN">West Gate<tspan x="-60" dy="-12" class="StnNameEN">Large</tspan></text>
                <text x="70" y="-14" class="StnNameEN">Institute<tspan x="70" dy="-12" class="StnNameEN">Movement</tspan><tspan x="70" dy="-12" class="StnNameEN">Peasant</tspan></text>
            </g>
            <g text-anchor="end">
                <text x="331" y="-14" class="StnNameEN">Yangji</text>
                <text x="439" y="-84" class="StnNameEN">Road<tspan x="439" dy="-12" class="StnNameEN">Tiyu West</tspan></text>
            </g>
        </g>
        <g id="GZ2_names_EN">
            <g text-anchor="start">
                <text x="61" y="-325" class="StnNameEN">Baiyun<tspan x="61" dy="12" class="StnNameEN">Park</tspan></text>
                <text x="27" y="-291" class="StnNameEN">Feixiang<tspan x="27" dy="12" class="StnNameEN">Park</tspan></text>
                <text x="11" y="-250" class="StnNameEN">Sanyuanli</text>
                <text x="11" y="-136" class="StnNameEN">Yuexiu<tspan x="11" dy="12" class="StnNameEN">Park</tspan></text>
                <text x="11" y="86" class="StnNameEN">Haizhu<tspan x="11" dy="12" class="StnNameEN">Square</tspan></text>
                <text x="72" y="160" class="StnNameEN">The 2nd Workers'<tspan x="72" dy="12" class="StnNameEN">Cultural Palace</tspan></text>
                <text x="117" y="197" class="StnNameEN">Jiangnan<tspan x="117" dy="12" class="StnNameEN">West</tspan></text>
            </g>
            <g text-anchor="end">
                <text x="-9" y="-176" class="StnNameEN">Guangzhou</text>
                <text x="-9" y="-56" class="StnNameEN">Sun Yat-sen<tspan x="-9" dy="12" class="StnNameEN">Memorial Hall</tspan></text>
                <text x="208" y="330" class="StnNameEN">Jiangtai<tspan x="208" dy="12" class="StnNameEN">Road</tspan></text>
            </g>
        </g>
        <g id="GZ3_names_EN">
            <g text-anchor="end">
                <text x="439" y="56" class="StnNameEN">New Town<tspan x="439" dy="-12" class="StnNameEN">Zhujiang</tspan></text>
            </g>
        </g>
        <g id="GZ5_names_EN">
            <g text-anchor="start">
                <text x="151" y="-124" class="StnNameEN">Taojin</text>
                <text x="219" y="-87" class="StnNameEN">Ouzhuang</text>
            </g>
            <g text-anchor="middle">
                <text x="309" y="-115" class="StnNameEN">Zoo</text>
                <text x="371" y="84" class="StnNameEN">Wuyang<tspan x="371" dy="12" class="StnNameEN">Estate</tspan></text>
            </g>
        </g>
        <g id="GZ6_names_EN">
            <g text-anchor="start">
                <text x="-111" y="134" class="StnNameEN">Cultural<tspan x="-111" dy="12" class="StnNameEN">Park</tspan></text>
            </g>
            <g text-anchor="middle">
                <text x="241" y="-146" class="StnNameEN">Huanghuagang</text>
            </g>
            <g text-anchor="end">
                <text x="401" y="-256" class="StnNameEN">Tianpingjia</text>
            </g>
        </g>
        <g id="GZ8_names_EN">
            <g text-anchor="start">
                <text x="8" y="248" class="StnNameEN">Fenghuang<tspan x="8" dy="12" class="StnNameEN">Estate</tspan></text>
            </g>
            <g text-anchor="end">
                <text x="-129" y="-56" class="StnNameEN">Caihong<tspan x="-131" dy="12" class="StnNameEN">Bridge</tspan></text>
                <text x="-58" y="236" class="StnNameEN">Tongfu<tspan x="-58" dy="12" class="StnNameEN">West</tspan></text>
                <text x="47.5" y="333.5" class="StnNameEN">Shayuan</text>
                <text x="202" y="246" class="StnNameEN">Xiaogang</text>
                <text x="284" y="246" class="StnNameEN">University<tspan x="284" dy="-12" class="StnNameEN">Sun Yat-sen</tspan></text>
            </g>
        </g>
        <g id="GZ10_names_EN">
            <g text-anchor="start">
                <text x="302" y="284" class="StnNameEN">SYSU South<tspan x="302" dy="12" class="StnNameEN">Entrance</tspan></text>
                <text x="382" y="2" class="StnNameEN">Guangzhou<tspan x="382" dy="12" class="StnNameEN">Avenue Middle</tspan></text>
            </g>
            <g text-anchor="middle">
                <text x="240" y="53" class="StnNameEN">Shuqian<tspan x="240" dy="12" class="StnNameEN">Road</tspan></text>
                <text x="304" y="53" class="StnNameEN">Siyou<tspan x="304" dy="12" class="StnNameEN">New Road</tspan></text>
            </g>
            <g text-anchor="end">
                <text x="209" y="437" class="StnNameEN">Daganwei</text>
                <text x="479" y="-117" class="StnNameEN">Tianhe Road</text>
            </g>
        </g>
        <g id="GZ11_names_EN">
            <g text-anchor="start">
                <text x="124" y="-234" class="StnNameEN">Estate<tspan x="124" dy="-12" class="StnNameEN">Guangyuan</tspan></text>
                <text x="369" y="-195" class="StnNameEN">Shahe</text>
            </g>
            <g text-anchor="middle">
                <text x="71" y="-234" class="StnNameEN">Ziyuangang</text>
                <text x="180" y="-197" class="StnNameEN">Dajinzhong</text>
                <text x="245" y="-225" class="StnNameEN">Garden<tspan x="245" dy="-12" class="StnNameEN">Yuntai</tspan></text>
                <text x="310" y="-225" class="StnNameEN">Village<tspan x="310" dy="-12" class="StnNameEN">Tianxin</tspan></text>
                <text x="406" y="334" class="StnNameEN">Shangchong<tspan x="406" dy="12" class="StnNameEN">Park</tspan></text>
                <text x="335" y="334" class="StnNameEN">Yijing<tspan x="335" dy="12" class="StnNameEN">Road</tspan></text>
                <text x="72" y="393" class="StnNameEN">Road<tspan x="72" dy="-12" class="StnNameEN">Nanshi</tspan></text>
            </g>
            <g text-anchor="end">
                <text x="284" y="306" class="StnNameEN">Wufeng</text>
                <text x="-40" y="405" class="StnNameEN">Hedong<tspan x="-40" dy="12" class="StnNameEN">East</tspan></text>
                <text x="-145" y="296" class="StnNameEN">Fangcun<tspan x="-145" dy="12" class="StnNameEN">Avenue</tspan><tspan x="-145" dy="12" class="StnNameEN">East</tspan></text>
            </g>
        </g>
        <g id="GZ12_names_EN">
            <g text-anchor="start">
                <text x="126" y="-336" class="StnNameEN">Yunxi Park</text>
                <text x="126" y="-296" class="StnNameEN">Xiaojinzhong</text>
                <text x="126" y="-256" class="StnNameEN">Jingyun Road</text>
                <text x="126" y="-179" class="StnNameEN">Hengfu Road</text>
            </g>
            <g text-anchor="middle">
                <text x="-51" y="-381" class="StnNameEN">Estate<tspan x="-51" dy="-12" class="StnNameEN">CSAir</tspan></text>
                <text x="263" y="100" class="StnNameEN">Ersha Island</text>
                <text x="462" y="187" class="StnNameEN">Lingnan Square</text>
            </g>
        </g>
        <g id="GZ13_names_EN">
            <g text-anchor="start">
                <text x="149" y="-56" class="StnNameEN">Jianshe<tspan x="149" dy="12" class="StnNameEN">6th Road</tspan></text>
            </g>
            <g text-anchor="middle">
                <text x="70" y="-84" class="StnNameEN">Road<tspan x="70" dy="-12" class="StnNameEN">Cangbian</tspan></text>
                <text x="239" y="-56" class="StnNameEN">Lower<tspan x="239" dy="12" class="StnNameEN">Nonglin</tspan><tspan x="239" dy="12" class="StnNameEN">Road</tspan></text>
                <text x="309" y="-56" class="StnNameEN">Meidong<tspan x="309" dy="12" class="StnNameEN">Road</tspan></text>
            </g>
            <g text-anchor="end">
                <text x="474" y="-28" class="StnNameEN">Huacheng<tspan x="474" dy="12" class="StnNameEN">Square North</tspan></text>
            </g>
        </g>
        <g id="GZ14_names_EN">
            <g text-anchor="end">
                <text x="-37" y="-279" class="StnNameEN">Lejia<tspan x="-37" dy="12" class="StnNameEN">Road</tspan></text>
                <text x="-17" y="-345" class="StnNameEN">Gangbei</text>
                <text x="15" y="-381" class="StnNameEN">Market<tspan x="15" dy="-12" class="StnNameEN">Xinshi</tspan></text>
            </g>
        </g>
        <g id="GZ19_names_EN">
            <g text-anchor="end">
                <text x="11" y="191" class="StnNameEN">Monastery<tspan x="11" dy="-12" class="StnNameEN">Hoi Tong</tspan></text>
            </g>
        </g>
        <g id="GZAPM_names_EN">
            <g text-anchor="start">
                <text x="505" y="-30" class="StnNameEN">Huangpu<tspan x="505" dy="12" class="StnNameEN">Avenue</tspan></text>
            </g>
        </g>
        <g id="GF_names_EN">
            <g text-anchor="end">
                <text x="-92" y="341" class="StnNameEN">Shachong</text>
                <text x="134" y="423" class="StnNameEN">Yangang</text>
                <text x="233" y="409" class="StnNameEN">Shixi</text>
            </g>
        </g>
        <set begin="cht_switch_base.click" end="cht_switch_over.click" attributeName="visibility" attributeType="CSS" to="hidden"/>
    </g>

    <g id="Station_names_ZH" font-size="6.7pt" style="visibility:hidden">
        <g id="GZ1_names_ZH">
            <g text-anchor="start">
                <text x="9" y="14" class="StnNameZH">公園前</text>
                <text x="149" y="14" class="StnNameZH">烈士陵園</text>
            </g>
            <g text-anchor="middle">
                <text x="70" y="-14" class="StnNameZH">農講所</text>
            </g>
        </g>
        <g id="GZ13_names_ZH">
            <g text-anchor="start">
                
            </g>
            <g text-anchor="middle">
                <text x="70" y="-84" class="StnNameZH">倉邊路</text>
                <text x="239" y="-56" class="StnNameZH">農林下路</text>
                <text x="319" y="-56" class="StnNameZH">梅東路</text>
            </g>
        </g>
        <set begin="cht_switch_base.click" end="cht_switch_over.click" attributeName="visibility" attributeType="CSS" to="visible"/>
    </g>
</svg>