<?xml version="1.0" encoding="UTF-8"?>
<svg
xmlns="http://www.w3.org/2000/svg"
xmlns:xlink="http://www.w3.org/1999/xlink"
width="2800" height="2210"
viewBox="-800 -1210 2800 2210"
>
    <title>Guangzhou Metro Map in London Style (2024) with PRDIR</title>

    <style type="text/css">
        .LineDiagram {fill:none;stroke-width:6}
        .NonGZMTR {stroke:#fff;stroke-width:2}
        .Railway {stroke-dasharray:8,14;stroke-width:3.5;stroke:#fff}
        .DumbbellBG {stroke:#000;stroke-width:9}
        .DumbbellFG {stroke:#fff;stroke-width:3}
        .PaidTunnel {fill:none;stroke:#0019A8;stroke-width:2}
        .RiverBG {fill:none;stroke-width:15;stroke:#00ABE7}
        .RiverFG {fill:none;stroke-width:14;stroke:#D4EDFC}
        .FlagBox {fill:none;stroke-width:8}
        .FlagBoxNameEN {
            font-family:Arial,"Hiragino Mincho ProN","PingFang HK","Meiryo UI",Meiryo,"Microsoft Jhenghei UI","Arial Unicode MS",sans-serif;
            font-weight:bold;
            alignment-baseline:middle;
            text-anchor:middle;
            font-size:4.5pt;
        }
        .FlagBoxNameZH {
            font-family:Arial,"Hiragino Mincho ProN","PingFang HK","Meiryo UI",Meiryo,"Microsoft Jhenghei UI","Arial Unicode MS",sans-serif;
            font-weight:bold;
            alignment-baseline:central;
            text-anchor:middle;
            font-size:3.7pt;
        }
        .StationTick {fill:none;stroke-width:4}
        .StationNameEN {
            font-family:Arial,"Hiragino Mincho ProN","PingFang HK","Meiryo UI",Meiryo,"Microsoft Jhenghei UI","Arial Unicode MS",sans-serif;
            fill:#0019A8;
            font-weight:bold;
            alignment-baseline:middle;
        }
        .StationNameZH {
            font-family:Arial,"Hiragino Mincho ProN","PingFang HK","Meiryo UI",Meiryo,"Microsoft Jhenghei UI","Arial Unicode MS",sans-serif;
            fill:#0019A8;
            font-weight:bold;
            alignment-baseline:central;
        }
        .cgz1 {stroke:#F3D03E}
        .cgz2 {stroke:#00629B}
        .cgz3 {stroke:#ECA154}
        .cgz4 {stroke:#00843D}
        .cgz5 {stroke:#C5003E}
        .cgz6 {stroke:#80225F}
        .cgz7 {stroke:#97D700}
        .cgz8 {stroke:#008C95}
        .cgz9 {stroke:#71CC98}
        .cgz10 {stroke:#7D9BC1}
        .cgz11 {stroke:#470A68}
        .cgz12 {stroke:#59621D}
        .cgz13 {stroke:#8E8C13}
        .cgz14 {stroke:#81312F}
        .cgz18 {stroke:#D48BC8}
        .cgz21 {stroke:#201747}
        .cgz22 {stroke:#041E42}
        .cgf {stroke:#C4D600}
        .cgzapm {stroke:#00B5E2}
        .cgzthz1 {stroke:#44A729}
        .cunknown {stroke:#999999}
        .TfLLU {fill:#0019A8}
        .CorporateGrey {fill:#868F98}
    </style>

    <defs>
        <path id="st" class="StationTick" d="M 2,0 H 7"/>
        <path id="term" class="StationTick" d="M -7,0 H 7"/>
        <g id="int">
            <circle cx="0" cy="0" r="9" fill="#000"/>
            <circle cx="0" cy="0" r="6" fill="#fff"/>
        </g>
        <path id="flagbox" class="FlagBox" d="M -30,0 H 30"/>
        <use xlink:href="#st" id="stgz1" class="cgz1"/>
        <use xlink:href="#st" id="stgz2" class="cgz2"/>
        <use xlink:href="#st" id="stgz3" class="cgz3"/>
        <use xlink:href="#st" id="stgz4" class="cgz4"/>
        <use xlink:href="#st" id="stgz5" class="cgz5"/>
        <use xlink:href="#st" id="stgz6" class="cgz6"/>
        <use xlink:href="#st" id="stgz8" class="cgz8"/>
        <use xlink:href="#st" id="stgz10" class="cgz10"/>
        <use xlink:href="#st" id="stgz11" class="cgz11"/>
        <use xlink:href="#st" id="stgz12" class="cgz12"/>
        <use xlink:href="#st" id="stgz13" class="cgz13"/>
        <g id="chinarail" transform="scale(0.0165) translate(-260,-305)" style="stroke:none;fill:#E60012">
            <path d="
                M169,273.5c0-19,14.7-34.8,33.7-36.3c18.9-1.5,38.1-2.2,57.4-2.2c19.3,0,38.4,0.8,57.3,2.2
                c19,1.5,33.7,17.3,33.7,36.3v47.3l-51.3,14.7c-11.2,3.2-18.9,13.4-18.9,25v147.8c0,17.4,12.2,32.3,29.3,35.7l110.6,22.1
        	    c4.9,1,8.4,5.2,8.4,10.2V599H91v-22.7c0-5,3.5-9.2,8.4-10.2L209.9,544c17-3.4,29.3-18.3,29.3-35.7V360.5c0-11.6-7.7-21.8-18.9-25
	            L169,320.8V273.5z M309.4,31.7c0.2-1.2,0.3-2.4,0.3-3.6c0-14-11.1-25.4-24.9-26C276.6,1.4,268.3,1,260,1c-8.3,0-16.6,0.4-24.7,1.1
	            c-13.9,0.6-24.9,12-24.9,26c0,1.2,0.1,2.5,0.3,3.6C90.6,54.8,0,160.3,0,287c0,97.2,53.4,182,132.4,226.6l36.8-48.1
	            C104.3,432.4,59.8,364.9,59.8,287c0-110.6,89.6-200.2,200.2-200.2S460.2,176.4,460.2,287c0,77.9-44.5,145.4-109.4,178.5
	            c15,19.6,25.6,33.5,36.8,48.1C466.6,469,520,384.2,520,287C520,160.3,429.4,54.8,309.4,31.7z
            "/>
        </g>
        <g id="prdir" fill="#2f8072" stroke="none" transform="scale(0.045) translate(-120,-110)">
            <path d="m 123.26128,86.978581 c 18.82577,44.553579 49.3883,83.668249 88.99504,112.823219 l 13.14286,9.67529 19.35056,-26.28579 -13.14288,-9.6753 c -48.90863,-36.00213 -82.0864,-89.248139 -93.06868,-148.784267 -0.41821,3.388459 -0.84067,6.776544 -1.38405,10.135115 -0.71479,4.414539 -1.53825,8.802699 -2.4665,13.159243 -0.92827,4.356522 -1.96142,8.681077 -3.09918,12.972597 -1.13783,4.29153 -2.37906,8.548725 -3.72263,12.768192 -1.34347,4.219477 -2.7893,8.401749 -4.33462,12.542101 -0.0843,0.225621 -0.18516,0.444203 -0.26983,0.6696 z"/>
            <path d="M 75.718442,153.26162 C 104.98636,114.75421 123.69429,68.77552 129.26191,19.911403 L 131.11,3.6962133 98.679701,0 96.831616,16.215189 c -6.8752,60.340224 -36.536917,115.622081 -82.703477,154.785941 3.146986,-1.32416 6.295477,-2.64496 9.478901,-3.84526 4.184491,-1.57783 8.400149,-3.04828 12.640565,-4.41206 4.240448,-1.3638 8.505312,-2.62074 12.793675,-3.77041 4.288405,-1.14967 8.598496,-2.19255 12.926763,-3.12796 4.328223,-0.93542 8.675167,-1.76363 13.035327,-2.48458 0.237558,-0.0397 0.477344,-0.0609 0.715083,-0.0992 z"/>
            <path d="m 157.1558,160.72798 c -47.99747,-5.97319 -97.153016,0.93741 -142.205315,20.66035 L 0,187.93277 13.088864,217.83374 28.039371,211.2893 c 55.633098,-24.35505 118.334389,-26.46483 175.385289,-6.20773 -2.72531,-2.05645 -5.44858,-4.11594 -8.0852,-6.26617 -3.46574,-2.82628 -6.85428,-5.73346 -10.163,-8.71565 -3.30877,-2.98217 -6.53736,-6.03921 -9.68506,-9.17031 -3.14766,-3.13109 -6.2139,-6.33465 -9.19632,-9.60797 -2.98233,-3.27329 -5.88147,-6.61643 -8.69438,-10.02492 -0.15331,-0.18587 -0.29217,-0.38243 -0.44495,-0.5685 z"/>
        </g>
    </defs>

    <g id="cht_switch" style="opacity:0;cursor:pointer">
		<g id="cht_switch_base">
			<rect x="-690" y="-1040" width="10" height="10" style="fill:#fff;stroke:#000;stroke-width:1"/>
			<text x="-675" y="-1030" font-size="14px" class="stname">Traditional Chinese</text>
		</g>
		<g id="cht_switch_over" style="visibility:hidden;opacity:0">
            <use xlink:href="#enabled" x="-690" y="-1040"/>
			<text x="-675" y="-1030" style="stroke:#243588;stroke-width:0.5;font-size:14px" class="stname">Traditional Chinese</text>
			<set
			begin="cht_switch_base.click"
			end="cht_switch_over.click"
			attributeName="visibility" attributeType="CSS" to="visible"/>
			<set
			begin="cht_switch_base.click"
			end="cht_switch_over.click"
			attributeName="opacity" attributeType="CSS" to="1"/>
		</g>
		<animate
		attributeName="opacity" attributeType="CSS" values="0; 1" keyTimes="0; 1" dur="0.5s" fill="freeze"/>
	</g>

    <g class="RiverBG">
        <g id="Pearl_River">
            <!--TextGap: 18 LineGap:26-->
            <path id="PearlRiver_Nansha" d="
                M 300,114 H 500
            "/>
        </g>
    </g>
    <use xlink:href="#Pearl_River" class="RiverFG"/>

    <g class="LineDiagram">
        <path id="GZ1_route" class="cgz1" d="
            M -100,0
            H 350 a 21,21 0 0,0 15,-6
            L 423,-64 a 21,21 0 0,1 15,-6
            H 566 a 21,21 0 0,0 21,-21
            V -179 a 21,21 0 0,0 -21,-21
            H 448
        "/>
        <path id="GZ2_route" class="cgz2" d="
            M 94,-377
            L 6,-289 a 21,21 0 0,0 -6,15
            V 100
        "/>
        <path id="GZ3_route" class="cgz3" d="
            M 442,-325 a 21,21 0 0,1 6,15
            V 200
        "/>
        <path id="GZ5_route" class="cgz5" d="
            M -89,-190
            H 65 a 21,21 0 0,1 15,6
            L 157,-107 a 21,21 0 0,0 15,6
            H 319 a 21,21 0 0,1 21,21
            V 49 a 21,21 0 0,0 21,21
            H 500
        "/>
        <path id="GZ6_route" class="cgz6" d="
            M 100,70
            H 189 a 21,21 0 0,0 21,-21
            V -111 a 21,21 0 0,1 21,-21
            H 287 a 21,21 0 0,0 15,-6
            L 418,-254 a 21,21 0 0,1 15,-6
            H 448
        "/>
        <path id="GZ8_route" class="cgz8" d="
            M -160,-200
            V 200
        "/>
        <path id="GZ10_route" class="cgz10" d="
            M 179,100
            V 60 a 21,21 0 0,1 21,-21
            H 350 a 21,21 0 0,0 21,-21
            V -80 a 21,21 0 0,1 21,-21
            H 600
        "/>
        <path id="GZ11_route" class="cgz11" d="
            M -200,-76
            H -101 a 21,21 0 0,0 15,-6
            L 37,-205 a 21,21 0 0,1 15,-6
            H 500
        "/>
        <path id="GZ12_route" class="cgz12" d="
            M 0,-367
            H 94 a 21,21 0 0,1 21,21
            V -123 a 21,21 0 0,0 6,15
            L 134,-95 a 21,21 0 0,1 6,15
            V 22 a 21,21 0 0,0 6,15
            L 189,80 a 21,21 0 0,0 15,6
        "/>
        <path id="GZ13_route" class="cgz13" d="
            M -200,-70
            H 381 a 21,21 0 0,1 15,6
            L 410,-50 a 21,21 0 0,0 15,6
            H 484 a 21,21 0 0,1 15,6
            L 531,-6 a 21,21 0 0,0 15,6
            H 600
        "/>
        <path id="GZ14_route" class="cgz14" d="
            M 11,-179
            V -208 a 21,21 0 0,0 -6,-15
            L -45,-263
        "/>
        <path id="GZ18_route" class="cgz18" d="
            M 459,-211
            V -201 a 21,21 0 0,0 6,15
            L 550,-100 a 21,21 0 0,1 6,15
            V 100
        "/>
        <path id="GZAPM_route" class="cgzapm" d="
            M 494,-140
            V 163
        "/>
        <g class="cgzthz1">
            <path id="GZTHZ1_route" d="
                M 471,140 H 550
            "/>
        </g>
        <use xlink:href="#GZTHZ1_route" class="NonGZMTR"/>
        <g class="cunknown">
            <path id="Guangshen_Railway" d="
                M -15,-205
                H 66 a 21,21 0 0,1 15,6
                L 112,-168 a 21,21 0 0,0 15,6
                H 284 a 21,21 0 0,0 15,-6
                L 351,-221 a 21,21 0 0,1 15,-6
                H 500
            "/>
        </g>
        <use xlink:href="#Guangshen_Railway" class="Railway"/>
    </g>

    <g id="Guangshen_Railway_station_icons">
        <path class="PaidTunnel" d="
            M -15,-205 L 0,-190
            M 474,-226 L 459,-211
        "/>
        <use xlink:href="#int" x="-15" y="-205" id="Guangzhou"/>
        <use xlink:href="#int" x="474" y="-226" id="Guangzhou"/>
    </g>
    <g id="GZ1_station_icons">
        <use xlink:href="#int" x="-160" y="0" id="Chen_Clan_Academy"/>
        <use xlink:href="#int" x="0" y="0" id="Gongyuanqian"/>
        <use xlink:href="#stgz1" transform="translate(70,0)rotate(-90)" id="Peasants_Movement_Institute"/>
        <use xlink:href="#int" x="140" y="0" id="Martyrs_Park"/>
        <use xlink:href="#int" x="210" y="0" id="Dongshankou"/>
        <use xlink:href="#int" x="340" y="0" id="Yangji"/>
        <use xlink:href="#int" x="448" y="-70" id="Tiyu_Xilu"/>
        <use xlink:href="#int" x="448" y="-200" id="Guangzhou_East_Railway_Station"/>
    </g>
    <g id="GZ2_station_icons">
        <use xlink:href="#int" x="84" y="-367" id="Baiyun_Cultrual_Square"/>
        <use xlink:href="#stgz2" transform="translate(0,-250)" id="Sanyuanli"/>
        <use xlink:href="#int" x="0" y="-190" id="Guangzhou_Railway_Station"/>
        <use xlink:href="#stgz2" transform="translate(0,-130)" id="Yuexiu_Park"/>
        <use xlink:href="#int" x="0" y="-70" id="SYS_Memorial_Hall"/>
        <!--Gongyuanqian GZ1-->
    </g>
    <g id="GZ3_station_icons">
        <use xlink:href="#stgz3" transform="translate(448,-300)" id="Meihuayuan"/>
        <use xlink:href="#int" x="448" y="-260" id="Yantang"/>
        <!--Guangzhou East Railway Station GZ1-->
        <path class="PaidTunnel" d="
            M 448,-140 H 494
        "/>
        <use xlink:href="#int" x="448" y="-140" id="Linhexi"/>
        <!--Tiyu Xilu GZ1-->
        <use xlink:href="#int" x="448" y="70" id="Zhujiang_New_Town"/>
        <path class="PaidTunnel" d="
            M 448,163 H 494
            M 448,163 L 471,140
        "/>
        <use xlink:href="#int" x="448" y="163" id="Canton_Tower"/>
    </g>
    <g id="GZ5_station_icons">
        <use xlink:href="#stgz5" transform="translate(90,-174)rotate(135)" id="Xiaobei"/>
        <use xlink:href="#int" x="140" y="-124" id="Taojin"/>
        <use xlink:href="#int" x="210" y="-101" id="Ouzhuang"/>
        <use xlink:href="#stgz5" transform="translate(309,-101)rotate(-90)" id="Zoo"/>
        <!--Yangji GZ1-->
        <use xlink:href="#stgz5" transform="translate(371,70)rotate(90)" id="Wuyangcun"/>
    </g>
    <g id="GZ6_station_icons">
        <use xlink:href="#int" x="179" y="70" id="Donghu"/>
        <use xlink:href="#stgz6" transform="translate(255,-132)rotate(-90)" id="Huanghuagang"/>
        <use xlink:href="#stgz6" transform="translate(408,-244)rotate(-135)" id="Shaheding"/>
    </g>
    <g id="GZ8_station_icons">
        <use xlink:href="#int" x="-160" y="-73" id="Caihongqiao"/>
        <use xlink:href="#int" x="448" y="233" id="Kecun"/>
    </g>
    <g id="GZ10_station_icons">
        <!--Donghu GZ6-->
        <use xlink:href="#stgz10" transform="translate(240,39)rotate(90)" id="Shuqian_Lu"/>
        <use xlink:href="#stgz10" transform="translate(304,39)rotate(90)" id="Siyou_Xinmalu"/>
        <use xlink:href="#stgz10" transform="translate(371,8)" id="Guangzhoudadaozhong"/>
        <use xlink:href="#int" x="479" y="-101" id="Tianhe_Lu"/>
    </g>
    <g id="GZ11_station_icons">
        <use xlink:href="#int" x="11" y="-179" id="Guangzhou_Railway_Station_11"/>
        <g class="DumbbellBG">
            <path id="GuangzhouRailwayStation_Interchange" d="
                M 11,-179 L 0,-190
            "/>
        </g>
        <use xlink:href="#GuangzhouRailwayStation_Interchange" class="DumbbellFG"/>
        <circle cx="11" cy="-179" r="6" fill="#fff"/>
        <circle cx="0" cy="-190" r="6" fill="#fff"/>
        <use xlink:href="#stgz11" transform="translate(62,-211)rotate(-90)" id="Ziyuangang"/>
        <use xlink:href="#int" x="115" y="-211" id="Guangyuan_Xincun"/>
        <use xlink:href="#stgz11" transform="translate(180,-211)rotate(90)" id="Dajinzhong"/>
        <use xlink:href="#stgz11" transform="translate(245,-211)rotate(-90)" id="Yuntai_Garden"/>
        <use xlink:href="#stgz11" transform="translate(310,-211)rotate(-90)" id="Tianxincun"/>
        <use xlink:href="#int" transform="translate(375,-211)" id="Shahe"/>
    </g>
    <g id="GZ12_station_icons">
        <use xlink:href="#stgz12" transform="translate(115,-336)" id="Yunxi_Park"/>
        <use xlink:href="#stgz12" transform="translate(115,-296)" id="Xiaojinzhong"/>
        <use xlink:href="#stgz12" transform="translate(115,-256)" id="Jingyun_Lu"/>
        <!--Guangyuan Xincun GZ11-->
        <use xlink:href="#stgz12" transform="translate(115,-179)" id="Hengfu_Lu"/>
    </g>
    <g id="GZ13_station_icons">
        <use xlink:href="#stgz13" transform="translate(70,-70)rotate(-90)" id="Cangbian_Lu"/>
        <use xlink:href="#int" x="140" y="-70" id="Jianshe_Liumalu"/>
        <g class="DumbbellBG">
            <path id="Taojin_Interchange" d="
                M 140,-70 V -124
            "/>
        </g>
        <use xlink:href="#Taojin_Interchange" class="DumbbellFG"/>
        <circle cx="140" cy="-70" r="6" fill="#fff"/>
        <circle cx="140" cy="-124" r="6" fill="#fff"/>
        <use xlink:href="#stgz13" transform="translate(239,-70)rotate(90)" id="Nonglin_Xialu"/>
        <use xlink:href="#stgz13" transform="translate(309,-70)rotate(90)" id="Meidong_Lu"/>
        <path class="PaidTunnel" d="
            M 474,-44 L 494,-24
        "/>
        <use xlink:href="#int" x="474" y="-44" id="Huacheng_Square_North"/>
        <g class="DumbbellBG">
            <path id="TiyuXilu_Interchange" d="
                M 448,-70 L 479,-101
                M 448,-70 L 474,-44
            "/>
        </g>
        <use xlink:href="#TiyuXilu_Interchange" class="DumbbellFG"/>
        <circle cx="448" cy="-70" r="6" fill="#fff"/>
        <circle cx="479" cy="-101" r="6" fill="#fff"/>
        <circle cx="474" cy="-44" r="6" fill="#fff"/>
        <!--Xiancun GZ18-->
    </g>
    <g id="GZ18_station_icons">
        <use xlink:href="#int" x="459" y="-211" id="Guangzhou_East_Railway_Station_18"/>
        <g class="DumbbellBG">
            <path id="GuangzhouEastRailwayStation_Interchange" d="
                M 459,-211 L 448,-200
            "/>
        </g>
        <use xlink:href="#GuangzhouEastRailwayStation_Interchange" class="DumbbellFG"/>
        <circle cx="459" cy="-211" r="6" fill="#fff"/>
        <circle cx="448" cy="-200" r="6" fill="#fff"/>
        <use xlink:href="#int" x="556" y="0" id="Xiancun"/>
    </g>
    <g id="GZAPM_station_icons">
        <use xlink:href="#int" x="494" y="-140" id="Linhexi"/>
        <use xlink:href="#int" x="494" y="-24" id="Huangpu_Dadao"/>
        <use xlink:href="#int" x="494" y="163" id="Canton_Tower_APM"/>
    </g>
    <g id="GZTHZ1_station_icons">
        <use xlink:href="#int" x="471" y="140" id="Canton_Tower_THZ1"/>
    </g>
    

    <g id="Station_names_EN" font-size="8.5pt" style="visibility:visible">
        <g id="GZ1_names_EN">
            <g text-anchor="start">
                <text x="9" y="14" class="StationNameEN">People's<tspan x="9" dy="12" class="StationNameEN">Park</tspan></text>
                <text x="149" y="14" class="StationNameEN">Martyrs'<tspan x="149" dy="12" class="StationNameEN">Park</tspan></text>
                <text x="219" y="14" class="StationNameEN">Dongshankou</text>
            </g>
            <g text-anchor="middle">
                <text x="70" y="-14" class="StationNameEN">Institute<tspan x="70" dy="-12" class="StationNameEN">Movement</tspan><tspan x="70" dy="-12" class="StationNameEN">Peasant</tspan></text>
            </g>
            <g text-anchor="end">
                <text x="331" y="-14" class="StationNameEN">Yangji</text>
                <text x="439" y="-84" class="StationNameEN">Road<tspan x="439" dy="-12" class="StationNameEN">Tiyu West</tspan></text>
            </g>
        </g>
        <g id="GZ2_names_EN">
            <g text-anchor="start">
                <text x="11" y="-250" class="StationNameEN">Sanyuanli</text>
                <text x="11" y="-136" class="StationNameEN">Yuexiu<tspan x="11" dy="12" class="StationNameEN">Park</tspan></text>
            </g>
            <g text-anchor="end">
                <text x="-9" y="-176" class="StationNameEN">Guangzhou</text>
                <use xlink:href="#chinarail" x="-78" y="-176"/>
                <use xlink:href="#prdir" x="-90" y="-176"/>
                <text x="-9" y="-56" class="StationNameEN">Sun Yat-sen<tspan x="-9" dy="12" class="StationNameEN">Memorial Hall</tspan></text>
            </g>
        </g>
        <g id="GZ3_names_EN">
            <g text-anchor="end">
                <text x="439" y="56" class="StationNameEN">New Town<tspan x="439" dy="-12" class="StationNameEN">Zhujiang</tspan></text>
            </g>
        </g>
        <g id="GZ5_names_EN">
            <g text-anchor="start">
                <text x="151" y="-124" class="StationNameEN">Taojin</text>
                <text x="219" y="-87" class="StationNameEN">Ouzhuang</text>
            </g>
            <g text-anchor="middle">
                <text x="309" y="-115" class="StationNameEN">Zoo</text>
                <text x="371" y="84" class="StationNameEN">Wuyang<tspan x="371" dy="12" class="StationNameEN">Estate</tspan></text>
            </g>
        </g>
        <g id="GZ6_names_EN">
            <g text-anchor="middle">
                <text x="255" y="-146" class="StationNameEN">Huanghuagang</text>
            </g>
        </g>
        <g id="GZ8_names_EN">
            <g text-anchor="start">
                <text x="-151" y="-56" class="StationNameEN">Caihong<tspan x="-151" dy="12" class="StationNameEN">Bridge</tspan></text>
            </g>
        </g>
        <g id="GZ10_names_EN">
            <g text-anchor="start">
                <text x="382" y="2" class="StationNameEN">Guangzhou<tspan x="382" dy="12" class="StationNameEN">Avenue Middle</tspan></text>
            </g>
            <g text-anchor="middle">
                <text x="240" y="53" class="StationNameEN">Shuqian<tspan x="240" dy="12" class="StationNameEN">Road</tspan></text>
                <text x="304" y="53" class="StationNameEN">Siyou<tspan x="304" dy="12" class="StationNameEN">New Road</tspan></text>
            </g>
            <g text-anchor="end">
                <text x="479" y="-117" class="StationNameEN">Tianhe Road</text>
            </g>
        </g>
        <g id="GZ11_names_EN">
            <g text-anchor="start">
                <text x="124" y="-225" class="StationNameEN">Estate<tspan x="124" dy="-12" class="StationNameEN">Guangyuan</tspan></text>
                <text x="384" y="-197" class="StationNameEN">Shahe</text>
            </g>
            <g text-anchor="middle">
                <text x="62" y="-225" class="StationNameEN">Ziyuangang</text>
                <text x="180" y="-197" class="StationNameEN">Dajinzhong</text>
                <text x="245" y="-225" class="StationNameEN">Garden<tspan x="245" dy="-12" class="StationNameEN">Yuntai</tspan></text>
                <text x="310" y="-225" class="StationNameEN">Village<tspan x="310" dy="-12" class="StationNameEN">Tianxin</tspan></text>
            </g>
        </g>
        <g id="GZ12_names_EN">
            <g text-anchor="start">
                <text x="126" y="-336" class="StationNameEN">Yunxi Park</text>
                <text x="126" y="-296" class="StationNameEN">Xiaojinzhong</text>
                <text x="126" y="-256" class="StationNameEN">Jingyun Road</text>
                <text x="126" y="-179" class="StationNameEN">Hengfu Road</text>
            </g>
        </g>
        <g id="GZ13_names_EN">
            <g text-anchor="start">
                <text x="149" y="-56" class="StationNameEN">Jianshe<tspan x="149" dy="12" class="StationNameEN">6th Road</tspan></text>
            </g>
            <g text-anchor="middle">
                <text x="70" y="-84" class="StationNameEN">Road<tspan x="70" dy="-12" class="StationNameEN">Cangbian</tspan></text>
                <text x="239" y="-56" class="StationNameEN">Lower<tspan x="239" dy="12" class="StationNameEN">Nonglin</tspan><tspan x="239" dy="12" class="StationNameEN">Road</tspan></text>
                <text x="309" y="-56" class="StationNameEN">Meidong<tspan x="309" dy="12" class="StationNameEN">Road</tspan></text>
            </g>
            <g text-anchor="end">
                <text x="474" y="-28" class="StationNameEN">Huacheng<tspan x="474" dy="12" class="StationNameEN">Square North</tspan></text>
            </g>
        </g>
        <g id="GZAPM_names_EN">
            <g text-anchor="start">
                <text x="505" y="-30" class="StationNameEN">Huangpu<tspan x="505" dy="12" class="StationNameEN">Avenue</tspan></text>
            </g>
        </g>
        <set begin="cht_switch_base.click" end="cht_switch_over.click" attributeName="visibility" attributeType="CSS" to="hidden"/>
    </g>

    <g id="Station_names_ZH" font-size="6.7pt" style="visibility:hidden">
        <g id="GZ1_names_ZH">
            <g text-anchor="start">
                <text x="9" y="14" class="StationNameZH">公園前</text>
                <text x="149" y="14" class="StationNameZH">烈士陵園</text>
            </g>
            <g text-anchor="middle">
                <text x="70" y="-14" class="StationNameZH">農講所</text>
            </g>
        </g>
        <g id="GZ13_names_ZH">
            <g text-anchor="start">
                
            </g>
            <g text-anchor="middle">
                <text x="70" y="-84" class="StationNameZH">倉邊路</text>
                <text x="239" y="-56" class="StationNameZH">農林下路</text>
                <text x="319" y="-56" class="StationNameZH">梅東路</text>
            </g>
        </g>
        <set begin="cht_switch_base.click" end="cht_switch_over.click" attributeName="visibility" attributeType="CSS" to="visible"/>
    </g>
</svg>