<?xml version="1.0" encoding="UTF-8"?>
<svg
xmlns="http://www.w3.org/2000/svg"
xmlns:xlink="http://www.w3.org/1999/xlink"
width="2800" height="2500"
viewBox="-800 -1500 2800 2500"
>
    <title>MTR and Shenzhen Metro Future Route Map</title>

    <style type="text/css">
        .LineDiagram {fill:none;stroke-width:6}
        .NonGZMTR {stroke:#fff;stroke-width:2}
        .Railway {stroke-dasharray:8,14;stroke-width:3.5;stroke:#fff}
        .DumbbellBG {stroke:#000;stroke-width:9}
        .DumbbellFG {stroke:#fff;stroke-width:3}
        .PaidTunnel {fill:none;stroke:#0019A8;stroke-width:2}
        .RiverBG {fill:none;stroke-width:15;stroke:#00ABE7}
        .RiverFG {fill:none;stroke-width:14;stroke:#D4EDFC}
        .Sea {stroke-width:0.5;stroke:#00ABE7;fill:#D4EDFC}
        .Island {stroke-width:0.5;stroke:#00ABE7;fill:#fff}
        .FlagBox {fill:none;stroke-width:8}
        .FlagBoxNameEN {
            font-family:Arial,"Hiragino Mincho ProN","PingFang HK","Meiryo UI",Meiryo,"Microsoft Jhenghei UI","Arial Unicode MS",sans-serif;
            font-weight:bold;
            alignment-baseline:middle;
            text-anchor:middle;
            font-size:4.5pt;
        }
        .FlagBoxNameZH {
            font-family:Arial,"Hiragino Mincho ProN","PingFang HK","Meiryo UI",Meiryo,"Microsoft Jhenghei UI","Arial Unicode MS",sans-serif;
            font-weight:bold;
            alignment-baseline:central;
            text-anchor:middle;
            font-size:3.7pt;
        }
        .StationTick {fill:none;stroke-width:4}
        .StationNameEN {
            font-family:Arial,"Hiragino Mincho ProN","PingFang HK","Meiryo UI",Meiryo,"Microsoft Jhenghei UI","Arial Unicode MS",sans-serif;
            fill:#0019A8;
            font-weight:bold;
            alignment-baseline:middle;
        }
        .StationNameZH {
            font-family:Arial,"Hiragino Mincho ProN","PingFang HK","Meiryo UI",Meiryo,"Microsoft Jhenghei UI","Arial Unicode MS",sans-serif;
            fill:#0019A8;
            font-weight:bold;
            alignment-baseline:central;
        }
        .cgz1 {stroke:#F3D03E}
        .cgz2 {stroke:#00629B}
        .cgz3 {stroke:#ECA154}
        .cgz4 {stroke:#00843D}
        .cgz5 {stroke:#C5003E}
        .cgz6 {stroke:#80225F}
        .cgz7 {stroke:#97D700}
        .cgz8 {stroke:#008C95}
        .cgz9 {stroke:#71CC98}
        .cgz10 {stroke:#7D9BC1}
        .cgz11 {stroke:#470A68}
        .cgz12 {stroke:#59621D}
        .cgz13 {stroke:#8E8C13}
        .cgz14 {stroke:#81312F}
        .cgz18 {stroke:#D48BC8}
        .cgz19 {stroke:#BB29BB}
        .cgz21 {stroke:#201747}
        .cgz22 {stroke:#041E42}
        .cgf {stroke:#C4D600}
        .cgzapm {stroke:#00B5E2}
        .cgzthz1 {stroke:#44A729}
        .cfs11 {stroke:#6600CC}
        .cunknown {stroke:#999999}
        .cprdir {stroke:#2F8072}
        
        .csz1 {stroke:#00AB39}
        .csz2 {stroke:#DB6D1C}
        .csz3 {stroke:#00A2E1}
        .csz4 {stroke:#DC241F}
        .csz6 {stroke:#3ABCA8}
        .csz7 {stroke:#0035AD}
        .csz9 {stroke:#846E74}
        .csz10 {stroke:#F8779E}
        .csz11 {stroke:#6A1D44}
        .csz14 {stroke:#99A3A6}

        .ctwl {stroke:#E2231A}
        .cktl {stroke:#00AF41}
        .cisl {stroke:#0071CE}
        .ctkl {stroke:#A35EB5}
        .ctcl {stroke:#F38B00}
        .cdrl {stroke:#E777CB}
        .cael {stroke:#007078}
        .csile {stroke:#B6BD00}
        .csilw {stroke:#9182C2}
        .cekl {stroke:#00FF00}
        .cerl {stroke:#61B4E4}
        .cwrl {stroke:#B6008D}
        .cmol {stroke:#9A3820}
        .cnol {stroke:#FF0066}
        .c360 {stroke:#94989A}
        .clrl {stroke:#CD9700}
        .cefls {stroke:#000000}

        .TfLLU {fill:#0019A8}
        .CorporateGrey {fill:#868F98}
    </style>

    <defs>
        <path id="st" class="StationTick" d="M 2,0 H 7"/>
        <path id="term" class="StationTick" d="M -7,0 H 7"/>
        <g id="int">
            <circle cx="0" cy="0" r="9" fill="#000"/>
            <circle cx="0" cy="0" r="6" fill="#fff"/>
        </g>
        <path id="flagbox" class="FlagBox" d="M -30,0 H 30"/>

        <use xlink:href="#st" id="stsz1" class="csz1"/>
        <use xlink:href="#st" id="stsz2" class="csz2"/>
        <use xlink:href="#st" id="stsz3" class="csz3"/>
        <use xlink:href="#term" id="termsz3" class="csz3"/>
        <use xlink:href="#st" id="stsz4" class="csz4"/>
        <use xlink:href="#st" id="stsz5" class="csz5"/>
        <use xlink:href="#st" id="stsz6" class="csz6"/>
        <use xlink:href="#st" id="stsz7" class="csz7"/>
        <use xlink:href="#st" id="stsz9" class="csz9"/>
        <use xlink:href="#st" id="stsz10" class="csz10"/>

        <use xlink:href="#st" id="sttwl" class="ctwl"/>
        <use xlink:href="#term" id="termtwl" class="ctwl"/>
        <use xlink:href="#st" id="stktl" class="cktl"/>
        <use xlink:href="#term" id="termktl" class="cktl"/>
        <use xlink:href="#st" id="stisl" class="cisl"/>
        <use xlink:href="#term" id="termisl" class="cisl"/>
        <use xlink:href="#st" id="sttkl" class="ctkl"/>
        <use xlink:href="#term" id="termtkl" class="ctkl"/>
        <use xlink:href="#st" id="sttcl" class="ctcl"/>
        <use xlink:href="#st" id="stsile" class="csile"/>
        <use xlink:href="#term" id="termsile" class="csile"/>
        <use xlink:href="#st" id="stsilw" class="csilw"/>
        <use xlink:href="#st" id="sterl" class="cerl"/>
        <use xlink:href="#term" id="termerl" class="cerl"/>
        <use xlink:href="#st" id="stwrl" class="cwrl"/>
        <use xlink:href="#st" id="stmol" class="cmol"/>
        <use xlink:href="#term" id="termmol" class="cmol"/>
        <use xlink:href="#st" id="stnol" class="cnol"/>
        <g id="chinarail" transform="scale(0.0165) translate(-260,-305)" style="stroke:none;fill:#E60012">
            <path d="
                M169,273.5c0-19,14.7-34.8,33.7-36.3c18.9-1.5,38.1-2.2,57.4-2.2c19.3,0,38.4,0.8,57.3,2.2
                c19,1.5,33.7,17.3,33.7,36.3v47.3l-51.3,14.7c-11.2,3.2-18.9,13.4-18.9,25v147.8c0,17.4,12.2,32.3,29.3,35.7l110.6,22.1
        	    c4.9,1,8.4,5.2,8.4,10.2V599H91v-22.7c0-5,3.5-9.2,8.4-10.2L209.9,544c17-3.4,29.3-18.3,29.3-35.7V360.5c0-11.6-7.7-21.8-18.9-25
	            L169,320.8V273.5z M309.4,31.7c0.2-1.2,0.3-2.4,0.3-3.6c0-14-11.1-25.4-24.9-26C276.6,1.4,268.3,1,260,1c-8.3,0-16.6,0.4-24.7,1.1
	            c-13.9,0.6-24.9,12-24.9,26c0,1.2,0.1,2.5,0.3,3.6C90.6,54.8,0,160.3,0,287c0,97.2,53.4,182,132.4,226.6l36.8-48.1
	            C104.3,432.4,59.8,364.9,59.8,287c0-110.6,89.6-200.2,200.2-200.2S460.2,176.4,460.2,287c0,77.9-44.5,145.4-109.4,178.5
	            c15,19.6,25.6,33.5,36.8,48.1C466.6,469,520,384.2,520,287C520,160.3,429.4,54.8,309.4,31.7z
            "/>
        </g>
        <g id="prdir" fill="#2f8072" stroke="none" transform="scale(0.045) translate(-120,-110)">
            <path d="m 123.26128,86.978581 c 18.82577,44.553579 49.3883,83.668249 88.99504,112.823219 l 13.14286,9.67529 19.35056,-26.28579 -13.14288,-9.6753 c -48.90863,-36.00213 -82.0864,-89.248139 -93.06868,-148.784267 -0.41821,3.388459 -0.84067,6.776544 -1.38405,10.135115 -0.71479,4.414539 -1.53825,8.802699 -2.4665,13.159243 -0.92827,4.356522 -1.96142,8.681077 -3.09918,12.972597 -1.13783,4.29153 -2.37906,8.548725 -3.72263,12.768192 -1.34347,4.219477 -2.7893,8.401749 -4.33462,12.542101 -0.0843,0.225621 -0.18516,0.444203 -0.26983,0.6696 z"/>
            <path d="M 75.718442,153.26162 C 104.98636,114.75421 123.69429,68.77552 129.26191,19.911403 L 131.11,3.6962133 98.679701,0 96.831616,16.215189 c -6.8752,60.340224 -36.536917,115.622081 -82.703477,154.785941 3.146986,-1.32416 6.295477,-2.64496 9.478901,-3.84526 4.184491,-1.57783 8.400149,-3.04828 12.640565,-4.41206 4.240448,-1.3638 8.505312,-2.62074 12.793675,-3.77041 4.288405,-1.14967 8.598496,-2.19255 12.926763,-3.12796 4.328223,-0.93542 8.675167,-1.76363 13.035327,-2.48458 0.237558,-0.0397 0.477344,-0.0609 0.715083,-0.0992 z"/>
            <path d="m 157.1558,160.72798 c -47.99747,-5.97319 -97.153016,0.93741 -142.205315,20.66035 L 0,187.93277 13.088864,217.83374 28.039371,211.2893 c 55.633098,-24.35505 118.334389,-26.46483 175.385289,-6.20773 -2.72531,-2.05645 -5.44858,-4.11594 -8.0852,-6.26617 -3.46574,-2.82628 -6.85428,-5.73346 -10.163,-8.71565 -3.30877,-2.98217 -6.53736,-6.03921 -9.68506,-9.17031 -3.14766,-3.13109 -6.2139,-6.33465 -9.19632,-9.60797 -2.98233,-3.27329 -5.88147,-6.61643 -8.69438,-10.02492 -0.15331,-0.18587 -0.29217,-0.38243 -0.44495,-0.5685 z"/>
        </g>
    </defs>

    <g id="cht_switch" style="opacity:0;cursor:pointer">
		<g id="cht_switch_base">
			<rect x="-690" y="-1040" width="10" height="10" style="fill:#fff;stroke:#000;stroke-width:1"/>
			<text x="-675" y="-1030" font-size="14px" class="stname">Traditional Chinese</text>
		</g>
		<g id="cht_switch_over" style="visibility:hidden;opacity:0">
            <use xlink:href="#enabled" x="-690" y="-1040"/>
			<text x="-675" y="-1030" style="stroke:#243588;stroke-width:0.5;font-size:14px" class="stname">Traditional Chinese</text>
			<set
			begin="cht_switch_base.click"
			end="cht_switch_over.click"
			attributeName="visibility" attributeType="CSS" to="visible"/>
			<set
			begin="cht_switch_base.click"
			end="cht_switch_over.click"
			attributeName="opacity" attributeType="CSS" to="1"/>
		</g>
		<animate
		attributeName="opacity" attributeType="CSS" values="0; 1" keyTimes="0; 1" dur="0.5s" fill="freeze"/>
	</g>

    <path id="Victoria_Harbour" class="Sea" d="
        M -700,-127
        H -364 a 21,21 0 0,1 21,21
        V 138 a 21,21 0 0,0 21,21
        H -176 a 21,21 0 0,1 21,21
        V 214 a 21,21 0 0,0 21,21
        H 221 a 21,21 0 0,0 21,-21
        V 170 a 21,21 0 0,0 -6,-15
        L 206,125 a 21,21 0 0,1 0,-30
        L 216,85 a 21,21 0 0,1 30,0
        L 346,185 a 21,21 0 0,0 30,0
        L 381,180 a 21,21 0 0,0 0,-30
        L 301,70 a 21,21 0 0,1 0,-30
        L 311,30 a 21,21 0 0,1 30,0
        L 479,168 a 21,21 0 0,0 15,6
        H 830 a 21,21 0 0,0 21,-21

        V -560 a 21,21 0 0,0 -21,-21
        H 275 a 21,21 0 0,0 -21,21
        V -380 a 21,21 0 0,1 -21,21
        H 223 a 21,21 0 0,1 -21,-21
        V -440 a 21,21 0 0,0 -21,-21
        H 151 a 21,21 0 0,1 -21,-21
        V -590 a 21,21 0 0,1 21,-21

        H 830 a 21,21 0 0,0 21,-21
        V -826.25

        H 900
        V 750
        H -500
    "/>
    <path id="Hong_Kong_Island" class="Island" d="
        M -300,591
        H -490 a 21,21 0 0,1 -21,-21
        V 316 a 21,21 0 0,1 21,-21
        H 550 a 21,21 0 0,1 15,6
        L 705,441 a 21,21 0 0,1 6,15
        V 661 a 21,21 0 0,1 -21,21
        H -50 a 21,21 0 0,1 -15,-6
        L -144,597 a 21,21 0 0,0 -15,-6 Z
    "/>
    <path id="Ap_Lei_Chau" class="Island" d="
        M -250,682
        H -289 a 21,21 0 0,1 -21,-21
        V 627 a 21,21 0 0,1 21,-21
        H -170 a 21,21 0 0,1 15,6
        L -121,646 a 21,21 0 0,1 -15,36 Z
    "/>
    <path id="Tsing_Yi_Island" class="Island" d="
        M -359,-90
        V -20 a 21,21 0 0,1 -21,21
        H -392 a 21,21 0 0,1 -21,-21
        V -90 a 21,21 0 0,1 21,-21
        H -380 a 21,21 0 0,1 21,21 Z
    "/>
    <g class="RiverBG">
        <!--TextGap:18 LineGap:26-->
        <path id="Shenzhen_River" d="
            M -700,-677
            H -426 a 21,21 0 0,0 21,-21
            V -708 a 21,21 0 0,1 21,-21
            H -270 a 21,21 0 0,0 21,-21
            V -798 a 21,21 0 0,1 21,-21
            H 852
        "/>
    </g>
    <use xlink:href="#Shenzhen_River" class="RiverFG"/>

    <g class="LineDiagram">
        <path id="SZ1_route" class="csz1" d="
            M -600,-895
            H -369 a 21,21 0 0,0 21,-21
            V -944 a 21,21 0 0,1 21,-21
            H -167 a 21,21 0 0,0 15,-6
            L -100,-1023 a 21,21 0 0,1 15,-6
            H -59 a 21,21 0 0,1 21,21
            V -845
        "/>
        <path id="SZ2_route" class="csz2" d="
            M -700,-1085
            H -571 a 21,21 0 0,1 21,21
            V -986 a 21,21 0 0,0 21,21
            H -369 a 21,21 0 0,0 15,-6
            L -342,-983 a 21,21 0 0,1 15,-6
            H -190 a 21,21 0 0,1 15,6
            L -163,-971 a 21,21 0 0,0 15,6
            H 0
        "/>
        <path id="SZ3_route" class="csz3" d="
            M -449,-703
            H -498 a 21,21 0 0,1 -21,-21
            M -519,-724
            V -1014 a 21,21 0 0,1 21,-21
            H 0
        "/>
        <path id="SZ4_route" class="csz4" d="
            M -379,-755
            H -389 a 21,21 0 0,1 -21,-21
            V -850

            M -449,-850
            V -1200
        "/>
        <path id="SZ6_route" class="csz6" d="
            M -223,-965
            V -1200
        "/>
        <path id="SZ7_route" class="csz7" d="
            M -600,-794
            H -314 a 21,21 0 0,0 21,-21
            V -1114 a 21,21 0 0,1 21,-21
            H -100
        "/>
        <path id="SZ9_route" class="csz9" d="
            M -600,-1185
            H -174 a 21,21 0 0,1 21,21
            V -916 a 21,21 0 0,0 21,21
            H 0
        "/>
        <path id="SZ10_route" class="csz10" d="
            M -379,-755
            V -1200
        "/>
        <path id="SZ11_route" class="csz11" d="
            M -390,-954
            H -600
        "/>
        <path id="SZ14_route" class="csz14" d="
            M -379,-965
            L -305,-1039 a 21,21 0 0,0 6,-15
            V -1100
        "/>
    </g>

    <g class="LineDiagram">
        <path id="TWL_route" class="ctwl" d="
            M -432,-264
            H -342 a 21,21 0 0,1 21,21
            V -112 a 21,21 0 0,0 21,21
            M -300,-91
            H -24 a 21,21 0 0,1 21,21
            V 353 a 21,21 0 0,1 -6,15
            M -9,368
            L -52,411 a 21,21 0 0,1 -15,6
            M -67,417
            H -153
        "/>
        <path id="KTL_route" class="cktl" d="
            M 644,91
            H 544 a 21,21 0 0,1 -15,-6
            L 359,-85 a 21,21 0 0,0 -15,-6
            H 300
            H 24 a 21,21 0 0,0 -21,21
            V 101 a 21,21 0 0,0 21,21
            H 110 a 21,21 0 0,1 15,6
            L 175,178
        "/>
        <path id="ISL_route" class="cisl" d="
            M -438,335
            H -308 a 21,21 0 0,1 15,6
            L -217,417 a 21,21 0 0,0 15,6
            H 93 a 21,21 0 0,0 15,-6
            L 184,341 a 21,21 0 0,1 15,-6
            H 318 a 21,21 0 0,1 15,6
            L 409,417 a 21,21 0 0,0 15,6
            H 584 a 21,21 0 0,1 21,21
            V 514
        "/>
        <path id="TKL_route" class="ctkl" d="
            M -50,357
            H 359 a 21,21 0 0,0 15,-6
            L 547,178 a 21,21 0 0,0 6,-15
            V 118 a 21,21 0 0,1 21,-21
            H 740 a 21,21 0 0,0 21,-21
            V -14

            M 740,97 a 21,21 0 0,1 21,21
            V 148
        "/>
        <path id="TCL_route" class="ctcl" d="
            M -400,-85
            H -257 a 21,21 0 0,1 21,21
            V 336 a 21,21 0 0,0 21,21
            H -50
        "/>
        <path id="AEL_route" class="cael" d="
            M -400,-63
            H -278 a 21,21 0 0,1 21,21
            V 342 a 21,21 0 0,0 21,21
            H -153
        "/>
        <path id="SILE_route" class="csile" d="
            M -62,435
            L 7,504 a 21,21 0 0,1 6,15
            V 538 a 21,21 0 0,1 -21,21
            H -88 a 21,21 0 0,0 -15,6
            L -176,638 a 21,21 0 0,1 -15,6
            H -261
        "/>
        <path id="SILW_route" class="csilw" d="
            M -378,341
            H -388 a 21,21 0 0,0 -21,21
            V 532 a 21,21 0 0,0 21,21
            H -78
        "/>
        <path id="EKL_route" class="cekl" d="
            M 274,-91
            L 324,-141
            M 600,-14
            H 761
        "/>
        <path id="ERL_route" class="cerl" d="
            M -38,-793
            V -702 a 21,21 0 0,0 6,15
            L 88,-567 a 21,21 0 0,1 6,15
            M 94,-552
            V 314 a 21,21 0 0,1 -21,21
            H 47 a 21,21 0 0,0 -15,6
            L -98,471 a 21,21 0 0,1 -15,6
            H -183

            M 94,-352 a 21,21 0 0,1 6,-15
            L 110,-377 a 21,21 0 0,0 6,-15
            V -402 a 21,21 0 0,0 -6,-15
            L 100,-427 a 21,21 0 0,1 -6,-15

            M -12,-667 a 21,21 0 0,0 -15,-6
            H -355 a 21,21 0 0,1 -21,-21
            V -703
        "/>
        <path id="WRL_route" class="cwrl" d="
            M -491,-464 a 21,21 0 0,1 21,21
            V -174 a 21,21 0 0,0 21,21
            H -251 a 21,21 0 0,1 21,21
            V -11 a 21,21 0 0,0 6,15
            L -144,84 a 21,21 0 0,1 6,15
            V 174 a 21,21 0 0,0 21,21
            H 69 a 21,21 0 0,0 15,-6
            L 94,179
        "/>
        <path id="MOL_route" class="cmol" d="
            M 94,179
            L 268,5 a 21,21 0 0,0 6,-15
            V -100 a 21,21 0 0,0 -6,-15
            L 106,-277 a 21,21 0 0,1 -6,-15
            V -312 a 21,21 0 0,1 21,-21
            H 259 a 21,21 0 0,0 21,-21
            V -534 a 21,21 0 0,1 21,-21
            H 401
        "/>
        <path id="NOL_route" class="cnol" d="
            M -464,-433
            V -553 a 21,21 0 0,1 6,-15
            L -365,-661 a 21,21 0 0,1 15,-6
            H -191 a 21,21 0 0,0 15,-6
            L -126,-723 a 21,21 0 0,1 15,-6
            H 0

            M -388,-638 a 21,21 0 0,0 6,-15
            V -703
        "/>
        <g class="cefls">
            <path id="EFLS_route" d="
            M 384,-30
            L 394,-20 a 21,21 0 0,1 0,30
            L 389,15 a 21,21 0 0,1 -30,0
            L 338.5,-5.5 a 21,21 0 0,0 -30,0
            L 263,40 a 21,21 0 0,0 0,30
            L 338.5,145.5 a 21,21 0 0,0 30,0
            L 464,50
            "/>
        </g>
        <use xlink:href="#EFLS_route" class="NonGZMTR"/>
        <g class="cunknown">
            <path id="Guangshen_Railway" d="
                M -90,-1100
                V -727 a 21,21 0 0,0 6,15
                L 73,-555 a 21,21 0 0,1 6,15
                V 164
            "/>
            <path id="GZ_SZ_HK_Railway" d="
                M -484,-1500
                V -570 a 21,21 0 0,0 6,15
                L -193,-270 a 21,21 0 0,1 6,15
                V 119
            "/>
        </g>
        <use xlink:href="#Guangshen_Railway" class="Railway"/>
        <use xlink:href="#GZ_SZ_HK_Railway" class="Railway"/>
    </g>

    <g id="Guangshen_Railway_station_icons">
        <path class="PaidTunnel" d="
            M -90,-845 H -38
            M -90,-845 L -38,-793
            M 79,164 L 94,179
        "/>
        <use xlink:href="#int" x="-90" y="-845" id="Shenzhen"/>
        <use xlink:href="#int" x="79" y="164" id="Kowloon"/>
    </g>
    <g id="GZ_SZ_HK_Railway_station_icons">
        <path class="PaidTunnel" d="
            M -508,-954 L -449,-895
            M -519,-895 L -449,-965
            M -236,119 H -138
        "/>
        <use xlink:href="#int" x="-484" y="-930" id="Futian"/>
        <use xlink:href="#int" x="-187" y="119" id="West_Kowloon"/>
    </g>

    <g id="SZ1_station_icons">
        <use xlink:href="#int" x="-519" y="-895" id="Shopping_Park"/>
        <use xlink:href="#int" x="-449" y="-895" id="CEC"/>
        <use xlink:href="#int" x="-379" y="-895" id="Gangxia"/>
        <path class="PaidTunnel" d="
            M -317,-965 L -293,-989
        "/>
        <use xlink:href="#int" x="-317" y="-965" id="Huaqiang_Rd"/>
        <use xlink:href="#int" x="-223" y="-965" id="Science_Museum"/>
        <use xlink:href="#int" x="-138" y="-985" id="Grand_Theatre"/>
        <use xlink:href="#int" x="-69" y="-1032" id="Laojie"/>
        <use xlink:href="#int" x="-38" y="-845" id="Luohu"/>
    </g>
    <g id="SZ2_station_icons">
        <use xlink:href="#stsz2" transform="translate(-550,-1025)rotate(180)" id="Lianhua_West"/>
        <use xlink:href="#int" x="-519" y="-965" id="Futian"/>
        <use xlink:href="#int" x="-449" y="-965" id="Civic_Centre"/>
        <use xlink:href="#int" x="-379" y="-965" id="Gangxia_North"/>
        <use xlink:href="#int" x="-293" y="-989" id="Huaqiang_North"/>
        <use xlink:href="#stsz2" transform="translate(-258,-989)rotate(-90)" id="Yannan"/>
        <use xlink:href="#int" x="-138" y="-965" id="Grand_Theatre_SZ2"/>
        <g class="DumbbellBG">
            <path id="GrandTheatre_Interchange" d="
                M -138,-985 V -965
            "/>
        </g>
        <use xlink:href="#GrandTheatre_Interchange" class="DumbbellFG"/>
        <circle cx="-138" cy="-985" r="6" fill="#fff"/>
        <circle cx="-138" cy="-965" r="6" fill="#fff"/>
    </g>
    <g id="SZ3_station_icons">
        <use xlink:href="#termsz3" transform="translate(-449,-703)rotate(90)" id="Fubao"/>
        <use xlink:href="#stsz3" transform="translate(-519,-734)rotate(0)" id="Yitian"/>
        <use xlink:href="#int" x="-519" y="-794" id="Shixia"/>
        <!--Shopping Park SZ1-->
        <!--Futian SZ2-->
        <use xlink:href="#int" x="-449" y="-1035" id="Childrens_Palace"/>
        <use xlink:href="#int" x="-379" y="-1035" id="Lianhuacun"/>
        <use xlink:href="#int" x="-293" y="-1035" id="Huaxin"/>
        <use xlink:href="#int" x="-223" y="-1035" id="Tongxinling"/>
        <use xlink:href="#int" x="-153" y="-1035" id="Hongling"/>
    </g>
    <g id="SZ4_station_icons">
        <use xlink:href="#int" x="-449" y="-1185" id="Shangmeilin"/>
        <use xlink:href="#stsz4" transform="translate(-449,-1110)rotate(0)" id="Lianhua_North"/>
        <!--Childrens Place SZ3-->
        <!--Civic Centre SZ2-->
        <!--CEC SZ1-->
        <use xlink:href="#int" x="-410" y="-794" id="Fumin"/>
        <path class="PaidTunnel" d="
            M -379,-755 V -703
        "/>
        <use xlink:href="#int" x="-379" y="-755" id="Futian_Checkpoint"/>
    </g>
    <g id="SZ6_station_icons">
        <use xlink:href="#stsz6" transform="translate(-223,-1085)rotate(0)" id="Sports_Centre"/>
        <!--Tongxinling SZ3-->
        <!--Science_Museum SZ1-->
    </g>
    <g id="SZ7_station_icons">
        <!--Shixia SZ7-->
        <use xlink:href="#stsz7" transform="translate(-324,-794)rotate(90)" id="Huanggang_Checkpoint"/>
        <use xlink:href="#stsz7" transform="translate(-293,-825)" id="Fulin"/>
        <use xlink:href="#stsz7" transform="translate(-293,-865)" id="Chiwei"/>
        <use xlink:href="#stsz7" transform="translate(-293,-905)" id="Huaqiang_South"/>
        <use xlink:href="#int" x="-296" y="-1085" id="Huangmugang"/>
        <use xlink:href="#int" x="-153" y="-1135" id="Hongling_North"/>
    </g>
    <g id="SZ9_station_icons">
        <!--Hongling_North SZ7-->
        <use xlink:href="#stsz9" transform="translate(-153,-1085)rotate(0)" id="Yuanling"/>
        <!--Hongling SZ3-->
        <use xlink:href="#stsz9" transform="translate(-153,-926)rotate(180)" id="Hongling_South"/>
        <use xlink:href="#stsz9" transform="translate(-122,-895)rotate(90)" id="Ludancun"/>
        <use xlink:href="#stsz9" transform="translate(-63,-895)rotate(90)" id="Renmin_South"/>
    </g>
    <g id="SZ10_station_icons">
        <use xlink:href="#int" x="-379" y="-825" id="Fumin_SZ10"/>
        <g class="DumbbellBG">
            <path id="Fumin_Interchange" d="
                M -410,-794 L -379,-825
            "/>
        </g>
        <use xlink:href="#Fumin_Interchange" class="DumbbellFG"/>
        <circle cx="-410" cy="-794" r="6" fill="#fff"/>
        <circle cx="-379" cy="-825" r="6" fill="#fff"/>
    </g>
    <g id="SZ11_station_icons">
        <use xlink:href="#int" x="-390" y="-954" id="Gangxia_North_SZ11"/>
        <g class="DumbbellBG">
            <path id="Gangxia_North_Interchange" d="
                M -390,-954 L -379,-965
            "/>
        </g>
        <use xlink:href="#Gangxia_North_Interchange" class="DumbbellFG"/>
        <circle cx="-390" cy="-954" r="6" fill="#fff"/>
        <circle cx="-379" cy="-965" r="6" fill="#fff"/>
        <use xlink:href="#int" x="-508" y="-954" id="Futian_SZ11"/>
        <g class="DumbbellBG">
            <path id="Futian_Interchange" d="
                M -519,-965 L -508,-954
            "/>
        </g>
        <use xlink:href="#Futian_Interchange" class="DumbbellFG"/>
        <circle cx="-519" cy="-965" r="6" fill="#fff"/>
        <circle cx="-508" cy="-954" r="6" fill="#fff"/>
    </g>

    <g id="TWL_station_icons">
        <use xlink:href="#termtwl" transform="translate(-432,-264)rotate(90)" id="TSW"/>
        <use xlink:href="#sttwl" transform="translate(-372,-264)rotate(-90)" id="TWH"/>
        <use xlink:href="#sttwl" transform="translate(-321,-233)rotate(0)" id="KWH"/>
        <use xlink:href="#sttwl" transform="translate(-321,-173)rotate(0)" id="KWF"/>
        <use xlink:href="#int" transform="translate(-290,-88)" id="LAK"/>
        <use xlink:href="#int" x="-230" y="-91" id="MEF"/>
        <use xlink:href="#sttwl" transform="translate(-170,-91)rotate(90)" id="LCK"/>
        <use xlink:href="#sttwl" transform="translate(-110,-91)rotate(-90)" id="CSW"/>
        <use xlink:href="#sttwl" transform="translate(-50,-91)rotate(90)" id="SSP"/>
        <use xlink:href="#int" x="0" y="-60" id="PRE"/>
        <use xlink:href="#int" x="0" y="0" id="MOK"/>
        <use xlink:href="#int" x="0" y="60" id="YMT"/>
        <use xlink:href="#sttwl" transform="translate(-3,120)rotate(180)" id="JOR"/>
        <path class="PaidTunnel" d="
            M -3,180 L 12,195
        "/>
        <use xlink:href="#int" x="-3" y="180" id="TST"/>
        <use xlink:href="#int" x="-77" y="420" id="ADM"/>
        <use xlink:href="#int" x="-157" y="420" id="CEN"/>
    </g>
    <g id="KTL_station_icons">
        <use xlink:href="#int" x="644" y="94" id="TIK"/>
        <use xlink:href="#int" x="584" y="94" id="YAT"/>
        <use xlink:href="#stktl" transform="translate(519,75)rotate(135)" id="LAT"/>
        <path class="PaidTunnel" d="
            M 479,35 L 464,50
        "/>
        <use xlink:href="#int" x="479" y="35" id="KWT"/>
        <use xlink:href="#stktl" transform="translate(439,-5)rotate(-45)" id="NTK"/>
        <path class="PaidTunnel" d="
            M 399,-45 L 384,-30
        "/>
        <use xlink:href="#int" x="399" y="-45" id="KOB"/>
        <use xlink:href="#stktl" transform="translate(334,-91)rotate(-90)" id="CHH"/>
        <use xlink:href="#int" x="274" y="-91" id="DIH"/>
        <use xlink:href="#stktl" transform="translate(214,-91)rotate(90)" id="WTS"/>
        <use xlink:href="#stktl" transform="translate(154,-91)rotate(-90)" id="LOF"/>
        <use xlink:href="#int" x="94" y="-91" id="KOT"/>
        <use xlink:href="#stktl" transform="translate(34,-91)rotate(-90)" id="SKM"/>
        <!--PRE TWL-->
        <!--MOK TWL-->
        <!--YMT TWL-->
        <use xlink:href="#int" x="135" y="138" id="HOM"/>
        <use xlink:href="#termktl" transform="translate(175,178)rotate(-45)" id="WHA"/>
    </g>
    <g id="ISL_station_icons">
        <use xlink:href="#termisl" transform="translate(-438,335)rotate(-90)" id="KET"/>
        <use xlink:href="#int" x="-378" y="338" id="HKU"/>
        <use xlink:href="#stisl" transform="translate(-318,335)rotate(-90)" id="SYP"/>
        <use xlink:href="#stisl" transform="translate(-259,375)rotate(135)" id="SHW"/>
        <!--CEN TWL-->
        <!--ADM TWL-->
        <use xlink:href="#stisl" transform="translate(13,423)rotate(-90)" id="WAC"/>
        <use xlink:href="#stisl" transform="translate(83,423)rotate(90)" id="CAB"/>
        <use xlink:href="#stisl" transform="translate(135,390)rotate(45)" id="TIH"/>
        <use xlink:href="#stisl" transform="translate(209,335)rotate(-90)" id="FOH"/>
        <use xlink:href="#int" x="279" y="335" id="NOP"/>
        <use xlink:href="#int" x="349" y="357" id="QUB"/>
        <use xlink:href="#stisl" transform="translate(434,423)rotate(-90)" id="TAK"/>
        <use xlink:href="#stisl" transform="translate(494,423)rotate(90)" id="SWH"/>
        <use xlink:href="#stisl" transform="translate(554,423)rotate(-90)" id="SKW"/>
        <use xlink:href="#stisl" transform="translate(605,454)rotate(0)" id="HFC"/>
        <use xlink:href="#termisl" transform="translate(605,514)rotate(0)" id="CHW"/>
    </g>
    <g id="TKL_station_icons">
        <use xlink:href="#int" x="57" y="357" id="EXC_TKL"/>
        <use xlink:href="#sttkl" transform="translate(127,357)rotate(-90)" id="CBN"/>
        <use xlink:href="#int" x="279" y="357" id="NOP_TKL"/>
        <g class="DumbbellBG">
            <path id="NOP_Interchange" d="
                M 279,357 V 335
            "/>
        </g>
        <use xlink:href="#NOP_Interchange" class="DumbbellFG"/>
        <circle cx="279" cy="357" r="6" fill="#fff"/>
        <circle cx="279" cy="335" r="6" fill="#fff"/>
        <!--QUB ISL-->
        <!--YAT KTL-->
        <!--TIK KTL-->
        <use xlink:href="#sttkl" transform="translate(704,97)rotate(-90)" id="TKO"/>
        <use xlink:href="#sttkl" transform="translate(761,46)rotate(0)" id="HAH"/>
        <use xlink:href="#int" x="761" y="-14" id="POA"/>
        <use xlink:href="#termtkl" transform="translate(761,148)rotate(0)" id="LHP"/>
    </g>
    <g id="TCL_station_icons">
        <path class="PaidTunnel" d="
            M -386,-85 V -63
        "/>
        <use xlink:href="#int" transform="translate(-386,-85)" id="TSY"/>
        <!--LAK TWL-->
        <!--NAC WRL-->
        <path class="PaidTunnel" d="
            M -236,119 H -258
        "/>
        <use xlink:href="#sttcl" transform="translate(-236,59)rotate(0)" id="OLY"/>
        <use xlink:href="#int" x="-236" y="119" id="KOW"/>
        <use xlink:href="#int" x="-157" y="360" id="HOK"/>
        <g class="DumbbellBG">
            <path id="HOK_CEN_Interchange" d="
                M -157,360 V 420
            "/>
        </g>
        <use xlink:href="#HOK_CEN_Interchange" class="DumbbellFG"/>
        <circle cx="-157" cy="360" r="6" fill="#fff"/>
        <circle cx="-157" cy="420" r="6" fill="#fff"/>
        <use xlink:href="#int" x="-50" y="357" id="TAM"/>
    </g>
    <g id="AEL_station_icons">
        <use xlink:href="#int" transform="translate(-386,-63)" id="TSY_AEL"/>
        <use xlink:href="#int" x="-258" y="119" id="KOW_AEL"/>
        <!--HOK TCL-->
    </g>
    <g id="SILE_station_icons">
        <use xlink:href="#int" x="-62" y="435" id="ADM_SILE"/>
        <g class="DumbbellBG">
            <path id="ADM_Interchange" d="
                M -62,435 L -77,420
            "/>
        </g>
        <use xlink:href="#ADM_Interchange" class="DumbbellFG"/>
        <circle cx="-62" cy="435" r="6" fill="#fff"/>
        <circle cx="-77" cy="420" r="6" fill="#fff"/>
        <use xlink:href="#stsile" transform="translate(-18,559)rotate(90)" id="OCP"/>
        <use xlink:href="#int" x="-78" y="556" id="WCH"/>
        <use xlink:href="#stsile" transform="translate(-201,644)rotate(90)" id="LET"/>
        <use xlink:href="#termsile" transform="translate(-261,644)rotate(90)" id="SOH"/>
    </g>
    <g id="SILW_station_icons">
        <!--HKU ISL-->
        <use xlink:href="#stsilw" transform="translate(-409,402)rotate(180)" id="QMH"/>
        <use xlink:href="#stsilw" transform="translate(-409,462)rotate(180)" id="CYB"/>
        <use xlink:href="#stsilw" transform="translate(-409,522)rotate(180)" id="WAF"/>
        <use xlink:href="#stsilw" transform="translate(-299,553)rotate(-90)" id="TIW"/>
        <use xlink:href="#stsilw" transform="translate(-189,553)rotate(90)" id="ABE"/>
        <!--WCH SILE-->
    </g>
    <g id="ERL_station_icons">
        <use xlink:href="#int" transform="translate(-379,-703)" id="LMC"/>
        <use xlink:href="#int" x="-201" y="-670" id="KTU"/>
        <use xlink:href="#int" transform="translate(-38,-793)" id="LOW"/>
        <use xlink:href="#sterl" transform="translate(-2,-657)rotate(-45)" id="SHS"/>
        <use xlink:href="#sterl" transform="translate(38,-617)rotate(-45)" id="FAN"/>
        <use xlink:href="#sterl" transform="translate(78,-577)rotate(-45)" id="TWO"/>
        <use xlink:href="#sterl" transform="translate(94,-542)rotate(180)" id="TAP"/>
        <use xlink:href="#sterl" transform="translate(94,-502)rotate(180)" id="PAS"/>
        <use xlink:href="#sterl" transform="translate(94,-462)rotate(180)" id="UNI"/>
        <use xlink:href="#sterl" transform="translate(116,-397)" id="RAC"/>
        <use xlink:href="#sterl" transform="translate(94,-382)rotate(180)" id="FOT"/>
        <use xlink:href="#sterl" transform="translate(94,-342)rotate(180)" id="SHT"/>
        <use xlink:href="#int" x="97" y="-302" id="TAW"/>
        <!--KOT KTL-->
        <use xlink:href="#sterl" transform="translate(94,0)rotate(0)" id="MKK"/>
        <use xlink:href="#int" x="94" y="179" id="HUH"/>
        <use xlink:href="#int" x="57" y="335" id="EXC"/>
        <g class="DumbbellBG">
            <path id="EXC_Interchange" d="
                M 57,335 V 357
            "/>
        </g>
        <use xlink:href="#EXC_Interchange" class="DumbbellFG"/>
        <circle cx="57" cy="335" r="6" fill="#fff"/>
        <circle cx="57" cy="357" r="6" fill="#fff"/>
        <use xlink:href="#termerl" transform="translate(-183,477)rotate(90)" id="CES"/>
    </g>
    <g id="WRL_station_icons">
        <use xlink:href="#int" x="-467" y="-433" id="KSR"/>
        <use xlink:href="#stwrl" transform="translate(-392,-153)rotate(-90)" id="TWW"/>
        <use xlink:href="#int" x="-233" y="-21" id="NAC"/>
        <use xlink:href="#int" x="-138" y="119" id="AUS"/>
        <use xlink:href="#int" x="12" y="195" id="ETS"/>
        <!--HUH ERL-->
    </g>
    <g id="MOL_station_icons">
        <!--HUH ERL-->
        <use xlink:href="#stmol" transform="translate(176,97)rotate(-135)" id="TKW"/>
        <use xlink:href="#stmol" transform="translate(217,56)rotate(-135)" id="SUW"/>
        <path class="PaidTunnel" d="
            M 258,15 L 273,30
        "/>
        <use xlink:href="#int" x="258" y="15" id="KAT"/>
        <use xlink:href="#stmol" transform="translate(190,-193)rotate(-45)" id="HIK"/>
        <!--TAW ERL-->
        <use xlink:href="#stmol" transform="translate(190,-333)rotate(90)" id="CKT"/>
        <use xlink:href="#stmol" transform="translate(280,-364)rotate(0)" id="STW"/>
        <use xlink:href="#stmol" transform="translate(280,-404)rotate(0)" id="CIO"/>
        <use xlink:href="#stmol" transform="translate(280,-444)rotate(0)" id="SHM"/>
        <use xlink:href="#stmol" transform="translate(280,-484)rotate(0)" id="TSH"/>
        <use xlink:href="#stmol" transform="translate(280,-524)rotate(0)" id="HEO"/>
        <use xlink:href="#stmol" transform="translate(331,-555)rotate(-90)" id="MOS"/>
        <use xlink:href="#termmol" transform="translate(401,-555)rotate(-90)" id="WKS"/>
    </g>
    <g id="NOL_station_icons">
        <!--KSR WRL-->
        <use xlink:href="#stnol" transform="translate(-464,-503)rotate(180)" id="AUT"/>
        <use xlink:href="#stnol" transform="translate(-448,-578)rotate(45)" id="NTM"/>
        <use xlink:href="#stnol" transform="translate(-398,-628)rotate(45)" id="SAT"/>
        <!--LMC ERL-->
        <!--KTU ERL-->
    </g>
    <g id="EFLS_station_icons">
        <use xlink:href="#int" x="384" y="-30" id="KOB_EFLS"/>
        <use xlink:href="#int" x="273" y="30" id="KAT_EFLS"/>
        <use xlink:href="#int" x="464" y="50" id="KWT_EFLS"/>
    </g>
    

    <g id="Station_names_EN" font-size="8.5pt" style="visibility:visible">
        <g id="Guangshen_Railway_names_EN">
            <g text-anchor="end">
                <text x="68" y="164" class="StationNameEN">Kowloon</text>
            </g>
        </g>
        <g id="GZ_SZ_HK_Railway_names_EN">
            <g text-anchor="middle">
                <text x="-187" y="135" class="StationNameEN">Hong Kong<tspan x="-187" dy="12" class="StationNameEN">West Kowloon</tspan></text>
            </g>
        </g>

        <g id="SZ1_names_EN">
            <g text-anchor="middle">
                <text x="-223" y="-949" class="StationNameEN">Science Museum</text>
            </g>
            <g text-anchor="end">
                <text x="-301" y="-949" class="StationNameEN">Huaqiang<tspan x="-301" dy="12" class="StationNameEN">Road</tspan></text>
            </g>
        </g>
        <g id="SZ2_names_EN">
            <g text-anchor="start">
                <text x="-144" y="-949" class="StationNameEN">Grand<tspan x="-144" dy="12" class="StationNameEN">Theatre</tspan></text>
            </g>
            <g text-anchor="end">
                <text x="-302" y="-1003" class="StationNameEN">North<tspan x="-302" dy="-12" class="StationNameEN">Huaqiang</tspan></text>
            </g>
        </g>
        <g id="SZ3_names_EN">
            <g text-anchor="middle">
                <text x="-449" y="-717" class="StationNameEN">Fubao</text>
            </g>
        </g>
        <g id="SZ4_names_EN">
            <g text-anchor="start">
                <text x="-368" y="-755" class="StationNameEN">Futian Checkpoint</text>
            </g>
        </g>
        <g id="SZ7_names_EN">
            <g text-anchor="start">
                <text x="-282" y="-825" class="StationNameEN">Fulin</text>
                <text x="-282" y="-865" class="StationNameEN">Chiwei</text>
                <text x="-282" y="-911" class="StationNameEN">Huaqiang<tspan x="-282" dy="12" class="StationNameEN">South</tspan></text>
            </g>
            <g text-anchor="middle">
                <text x="-324" y="-780" class="StationNameEN">Huanggang<tspan x="-324" dy="12" class="StationNameEN">Checkpoint</tspan></text>
            </g>
        </g>
        <g id="SZ9_names_EN">
            <g text-anchor="middle">
                <text x="-122" y="-881" class="StationNameEN">Ludan<tspan x="-122" dy="12" class="StationNameEN">Village</tspan></text>
                <text x="-63" y="-881" class="StationNameEN">Renmin<tspan x="-63" dy="12" class="StationNameEN">South</tspan></text>
            </g>
            <g text-anchor="end">
                <text x="-164" y="-932" class="StationNameEN">Hongling<tspan x="-164" dy="12" class="StationNameEN">South</tspan></text>
            </g>
        </g>

        <g id="TWL_names_EN">
            <g text-anchor="start">
                <text x="-310" y="-233" class="StationNameEN">Kwai Hing</text>
                <text x="-310" y="-173" class="StationNameEN">Kwai Fong</text>
                <text x="-221" y="-105" class="StationNameEN">Mei Foo</text>
                <text x="11" y="-66" class="StationNameEN">Prince<tspan x="11" dy="12" class="StationNameEN">Edward</tspan></text>
            </g>
            <g text-anchor="middle">
                <text x="-432" y="-250" class="StationNameEN">Tseun Wan</text>
                <text x="-372" y="-278" class="StationNameEN">Tai Wo Hau</text>
                <text x="-290" y="-104" class="StationNameEN">Lai King</text>
                <text x="-170" y="-77" class="StationNameEN">Lai Chi Kok</text>
                <text x="-110" y="-105" class="StationNameEN">Cheung Sha Wan</text>
                <text x="-50" y="-77" class="StationNameEN">Shum Shui Po</text>
                <text x="-77" y="404" class="StationNameEN">Admiralty</text>
                <text x="-157" y="436" class="StationNameEN">Central</text>
            </g>
            <g text-anchor="end">
                <text x="-11" y="0" class="StationNameEN">Mong Kok</text>
                <text x="-11" y="60" class="StationNameEN">Yau Ma Tei</text>
                <text x="-14" y="120" class="StationNameEN">Jordan</text>
                <text x="-14" y="180" class="StationNameEN">Tsim Sha Tsui</text>
            </g>
        </g>
        <g id="KTL_names_EN">
            <g text-anchor="start">
                <text x="488" y="21" class="StationNameEN">Kwun Tong</text>
                <text x="446" y="-17" class="StationNameEN">Ngau Tau Kok</text>
                <text x="408" y="-59" class="StationNameEN">Kowloon Bay</text>
                <text x="283" y="-77" class="StationNameEN">Diamond<tspan x="283" dy="12" class="StationNameEN">Hill</tspan></text>
                <text x="103" y="-77" class="StationNameEN">Kowloon<tspan x="103" dy="12" class="StationNameEN">Tong</tspan></text>
                <text x="146" y="138" class="StationNameEN">Ho Man Tin</text>
                <text x="182" y="190" class="StationNameEN">Whampoa</text>
            </g>
            <g text-anchor="middle">
                <text x="644" y="110" class="StationNameEN">Tiu Keng Leng</text>
                <text x="584" y="78" class="StationNameEN">Yau Tong</text>
                <text x="334" y="-105" class="StationNameEN">Choi Hung</text>
                <text x="214" y="-77" class="StationNameEN">Wong Tai Sin</text>
                <text x="154" y="-105" class="StationNameEN">Lok Fu</text>
                <text x="34" y="-105" class="StationNameEN">Shek Kip Mei</text>
            </g>
            <g text-anchor="end">
                <text x="512" y="87" class="StationNameEN">Lam Tin</text>
            </g>
        </g>
        <g id="ISL_names_EN">
            <g text-anchor="start">
                <text x="142" y="402" class="StationNameEN">Tin Hau</text>
                <text x="616" y="454" class="StationNameEN">Heng Fa Cheun</text>
                <text x="616" y="514" class="StationNameEN">Chai Wan</text>
            </g>
            <g text-anchor="middle">
                <text x="-438" y="321" class="StationNameEN">Town<tspan x="-438" dy="-12" class="StationNameEN">Kennedy</tspan></text>
                <text x="-378" y="354" class="StationNameEN">HKU</text>
                <text x="-318" y="321" class="StationNameEN">Sai Ying Pun</text>
                <text x="13" y="409" class="StationNameEN">Wan Chai</text>
                <text x="83" y="437" class="StationNameEN">Causeway Bay</text>
                <text x="209" y="321" class="StationNameEN">Fortress Hill</text>
                <text x="279" y="319" class="StationNameEN">Point<tspan x="279" dy="-12" class="StationNameEN">North</tspan></text>
                <text x="434" y="409" class="StationNameEN">Tai Koo</text>
                <text x="494" y="437" class="StationNameEN">Sai Wan Ho</text>
                <text x="554" y="409" class="StationNameEN">Shau Kei Wan</text>
            </g>
            <g text-anchor="end">
                <text x="-266" y="387" class="StationNameEN">Sheung Wan</text>
                <text x="355" y="373" class="StationNameEN">Quarry Bay</text>
            </g>
        </g>
        <g id="TKL_names_EN">
            <g text-anchor="start">
                <text x="772" y="46" class="StationNameEN">Hang Hau</text>
                <text x="772" y="-14" class="StationNameEN">Po Lam</text>
                <text x="772" y="142" class="StationNameEN">LOHAS<tspan x="772" dy="12" class="StationNameEN">Park</tspan></text>
            </g>
            <g text-anchor="middle">
                <text x="127" y="341" class="StationNameEN">Bay North<tspan x="127" dy="-12" class="StationNameEN">Causeway</tspan></text>
                <text x="704" y="83" class="StationNameEN">Tseung Kwan O</text>
            </g>
        </g>
        <g id="TCL_names_EN">
            <g text-anchor="start">
                <text x="-225" y="59" class="StationNameEN">Olympic</text>
            </g>
            <g text-anchor="middle">
                <text x="-157" y="341" class="StationNameEN">Hong Kong</text>
                <text x="-50" y="341" class="StationNameEN">Tamar</text>
            </g>
        </g>
        <g id="AEL_names_EN">
            <g text-anchor="middle">
                <text x="-386" y="-47" class="StationNameEN">Tsing Yi</text>
            </g>
            <g text-anchor="end">
                <text x="-269" y="119" class="StationNameEN">Kowloon</text>
            </g>
        </g>
        <g id="SILE_names_EN">
            <g text-anchor="middle">
                <text x="-18" y="573" class="StationNameEN">Ocean<tspan x="-18" dy="12" class="StationNameEN">Park</tspan></text>
                <text x="-78" y="540" class="StationNameEN">Wong Chuk Hang</text>
                <text x="-201" y="658" class="StationNameEN">Lei Tung</text>
                <text x="-261" y="630" class="StationNameEN">Horizons<tspan x="-261" dy="-12" class="StationNameEN">South</tspan></text>
            </g>
        </g>
        <g id="SILW_names_EN">
            <g text-anchor="middle">
                <text x="-299" y="539" class="StationNameEN">Tin Wan</text>
                <text x="-189" y="567" class="StationNameEN">Aberdeen</text>
            </g>
            <g text-anchor="end">
                <text x="-420" y="396" class="StationNameEN">Queen Mary<tspan x="-420" dy="12" class="StationNameEN">Hospital</tspan></text>
                <text x="-420" y="462" class="StationNameEN">Cyberport</text>
                <text x="-420" y="522" class="StationNameEN">Wah Fu</text>
            </g>
        </g>
        <g id="ERL_names_EN">
            <g text-anchor="start">
                <text x="-368" y="-703" class="StationNameEN">Lok Ma Chau</text>
                <text x="-27" y="-793" class="StationNameEN">Lo Wu</text>
                <text x="5" y="-669" class="StationNameEN">Sheung Shui</text>
                <text x="45" y="-629" class="StationNameEN">Fanling</text>
                <text x="85" y="-589" class="StationNameEN">Tai Wo</text>
                <text x="127" y="-397" class="StationNameEN">Racecourse</text>
                <text x="105" y="-6" class="StationNameEN">Mong Kok<tspan x="105" dy="12" class="StationNameEN">East</tspan></text>
                <text x="103" y="193" class="StationNameEN">Hung Hom</text>
            </g>
            <g text-anchor="middle">
                <text x="-201" y="-654" class="StationNameEN">Kwu Tung</text>
                <text x="57" y="319" class="StationNameEN">Centre<tspan x="57" dy="-12" class="StationNameEN">Exhibition</tspan></text>
                <text x="-183" y="491" class="StationNameEN">Central<tspan x="-183" dy="12" class="StationNameEN">South</tspan></text>
            </g>
            <g text-anchor="end">
                <text x="71" y="-542" class="StationNameEN">Tai Po Market</text>
                <text x="71" y="-502" class="StationNameEN">Pak Shek Kok</text>
                <text x="71" y="-462" class="StationNameEN">University</text>
                <text x="71" y="-382" class="StationNameEN">Fo Tan</text>
                <text x="71" y="-342" class="StationNameEN">Sha Tin</text>
                <text x="71" y="-302" class="StationNameEN">Tai Wai</text>
            </g>
        </g>
        <g id="WRL_names_EN">
            <g text-anchor="start">
                <text x="-222" y="-27" class="StationNameEN">Nam<tspan x="-222" dy="12" class="StationNameEN">Cheong</tspan></text>
                <text x="-127" y="119" class="StationNameEN">Austin</text>
                <text x="6" y="211" class="StationNameEN">East<tspan x="6" dy="12" class="StationNameEN">Tsim Sha Tsui</tspan></text>
            </g>
            <g text-anchor="middle">
                <text x="-392" y="-167" class="StationNameEN">Tseun Wan West</text>
            </g>
        </g>
        <g id="MOL_names_EN">
            <g text-anchor="start">
                <text x="197" y="-205" class="StationNameEN">Hin Keng</text>
                <text x="291" y="-364" class="StationNameEN">Sha Tin Wai</text>
                <text x="291" y="-404" class="StationNameEN">City One</text>
                <text x="291" y="-444" class="StationNameEN">Shek Mun</text>
                <text x="291" y="-484" class="StationNameEN">Tai Shui Hang</text>
                <text x="291" y="-524" class="StationNameEN">Heng On</text>
            </g>
            <g text-anchor="middle">
                <text x="190" y="-319" class="StationNameEN">Che Kung<tspan x="190" dy="12" class="StationNameEN">Temple</tspan></text>
                <text x="331" y="-569" class="StationNameEN">Ma On Shan</text>
                <text x="401" y="-541" class="StationNameEN">Wu Kai Sha</text>
            </g>
            <g text-anchor="end">
                <text x="169" y="85" class="StationNameEN">To Kwa Wan</text>
                <text x="210" y="44" class="StationNameEN">Sung Wong Toi</text>
                <text x="249" y="1" class="StationNameEN">Kai Tak</text>
            </g>
        </g>
        <g id="NOL_names_EN">
            <g text-anchor="start">
                <text x="-441" y="-566" class="StationNameEN">Ngau Tam Mei</text>
                <text x="-391" y="-616" class="StationNameEN">San Tin</text>
            </g>
            <g text-anchor="end">
                <text x="-475" y="-503" class="StationNameEN">Au Tau</text>
            </g>
        </g>
        <set begin="cht_switch_base.click" end="cht_switch_over.click" attributeName="visibility" attributeType="CSS" to="hidden"/>
    </g>

    <g id="Station_names_ZH" font-size="6.7pt" style="visibility:hidden">
        <g id="GZ1_names_ZH">
            <g text-anchor="start">
                <text x="9" y="14" class="StationNameZH">公園前</text>
                <text x="149" y="14" class="StationNameZH">烈士陵園</text>
            </g>
            <g text-anchor="middle">
                <text x="70" y="-14" class="StationNameZH">農講所</text>
            </g>
        </g>
        <g id="GZ13_names_ZH">
            <g text-anchor="start">
                
            </g>
            <g text-anchor="middle">
                <text x="70" y="-84" class="StationNameZH">倉邊路</text>
                <text x="239" y="-56" class="StationNameZH">農林下路</text>
                <text x="319" y="-56" class="StationNameZH">梅東路</text>
            </g>
        </g>
        <set begin="cht_switch_base.click" end="cht_switch_over.click" attributeName="visibility" attributeType="CSS" to="visible"/>
    </g>
</svg>