<?xml version="1.0" encoding="UTF-8"?>
<svg
xmlns="http://www.w3.org/2000/svg"
xmlns:xlink="http://www.w3.org/1999/xlink"
width="2800" height="2210"
viewBox="-800 -1210 2800 2210"
>
    <title>Guangzhou Metro Map in London Style (2024) with PRDIR</title>

    <style type="text/css">
        .LineDiagram {fill:none;stroke-width:6}
        .NonGZMTR {stroke:#fff;stroke-width:2}
        .Railway {stroke-dasharray:8,14;stroke-width:3.5;stroke:#fff}
        .DumbbellBG {stroke:#000;stroke-width:9}
        .DumbbellFG {stroke:#fff;stroke-width:3}
        .PaidTunnel {fill:none;stroke:#0019A8;stroke-width:2}
        .RiverBG {fill:none;stroke-width:15;stroke:#00ABE7}
        .RiverFG {fill:none;stroke-width:14;stroke:#D4EDFC}
        .FlagBox {fill:none;stroke-width:8}
        .FlagBoxNameEN {
            font-family:Arial,"Hiragino Mincho ProN","PingFang HK","Meiryo UI",Meiryo,"Microsoft Jhenghei UI","Arial Unicode MS",sans-serif;
            font-weight:bold;
            alignment-baseline:middle;
            text-anchor:middle;
            font-size:4.5pt;
        }
        .FlagBoxNameZH {
            font-family:Arial,"Hiragino Mincho ProN","PingFang HK","Meiryo UI",Meiryo,"Microsoft Jhenghei UI","Arial Unicode MS",sans-serif;
            font-weight:bold;
            alignment-baseline:central;
            text-anchor:middle;
            font-size:3.7pt;
        }
        .StationTick {fill:none;stroke-width:4}
        .StationNameEN {
            font-family:Arial,"Hiragino Mincho ProN","PingFang HK","Meiryo UI",Meiryo,"Microsoft Jhenghei UI","Arial Unicode MS",sans-serif;
            fill:#0019A8;
            font-weight:bold;
            alignment-baseline:middle;
        }
        .StationNameZH {
            font-family:Arial,"Hiragino Mincho ProN","PingFang HK","Meiryo UI",Meiryo,"Microsoft Jhenghei UI","Arial Unicode MS",sans-serif;
            fill:#0019A8;
            font-weight:bold;
            alignment-baseline:central;
        }
        .cgz1 {stroke:#F3D03E}
        .cgz2 {stroke:#00629B}
        .cgz3 {stroke:#ECA154}
        .cgz4 {stroke:#00843D}
        .cgz5 {stroke:#C5003E}
        .cgz6 {stroke:#80225F}
        .cgz7 {stroke:#97D700}
        .cgz8 {stroke:#008C95}
        .cgz9 {stroke:#71CC98}
        .cgz10 {stroke:#7D9BC1}
        .cgz11 {stroke:#470A68}
        .cgz12 {stroke:#59621D}
        .cgz13 {stroke:#8E8C13}
        .cgz14 {stroke:#81312F}
        .cgz18 {stroke:#D48BC8}
        .cgz19 {stroke:#BB29BB}
        .cgz21 {stroke:#201747}
        .cgz22 {stroke:#041E42}
        .cgf {stroke:#C4D600}
        .cgzapm {stroke:#00B5E2}
        .cgzthz1 {stroke:#44A729}
        .cfs11 {stroke:#6600CC}
        .cunknown {stroke:#999999}
        .cprdir {stroke:#2F8072}
        
        .ctwl {stroke:#E2231A}
        .cktl {stroke:#00AF41}
        .cisl {stroke:#0071CE}
        .ctkl {stroke:#A35EB5}
        .ctcl {stroke:#F38B00}
        .cdrl {stroke:#E777CB}
        .cael {stroke:#007078}
        .cerl {stroke:#61B4E4}
        .cwrl {stroke:#B6008D}
        .cmol {stroke:#9A3820}
        .csil {stroke:#B6BD00}
        .c360 {stroke:#94989A}
        .clrl {stroke:#CD9700}

        .TfLLU {fill:#0019A8}
        .CorporateGrey {fill:#868F98}
    </style>

    <defs>
        <path id="st" class="StationTick" d="M 2,0 H 7"/>
        <path id="term" class="StationTick" d="M -7,0 H 7"/>
        <g id="int">
            <circle cx="0" cy="0" r="9" fill="#000"/>
            <circle cx="0" cy="0" r="6" fill="#fff"/>
        </g>
        <path id="flagbox" class="FlagBox" d="M -30,0 H 30"/>
        <use xlink:href="#st" id="sttwl" class="ctwl"/>
        <use xlink:href="#st" id="stktl" class="cktl"/>
        <g id="chinarail" transform="scale(0.0165) translate(-260,-305)" style="stroke:none;fill:#E60012">
            <path d="
                M169,273.5c0-19,14.7-34.8,33.7-36.3c18.9-1.5,38.1-2.2,57.4-2.2c19.3,0,38.4,0.8,57.3,2.2
                c19,1.5,33.7,17.3,33.7,36.3v47.3l-51.3,14.7c-11.2,3.2-18.9,13.4-18.9,25v147.8c0,17.4,12.2,32.3,29.3,35.7l110.6,22.1
        	    c4.9,1,8.4,5.2,8.4,10.2V599H91v-22.7c0-5,3.5-9.2,8.4-10.2L209.9,544c17-3.4,29.3-18.3,29.3-35.7V360.5c0-11.6-7.7-21.8-18.9-25
	            L169,320.8V273.5z M309.4,31.7c0.2-1.2,0.3-2.4,0.3-3.6c0-14-11.1-25.4-24.9-26C276.6,1.4,268.3,1,260,1c-8.3,0-16.6,0.4-24.7,1.1
	            c-13.9,0.6-24.9,12-24.9,26c0,1.2,0.1,2.5,0.3,3.6C90.6,54.8,0,160.3,0,287c0,97.2,53.4,182,132.4,226.6l36.8-48.1
	            C104.3,432.4,59.8,364.9,59.8,287c0-110.6,89.6-200.2,200.2-200.2S460.2,176.4,460.2,287c0,77.9-44.5,145.4-109.4,178.5
	            c15,19.6,25.6,33.5,36.8,48.1C466.6,469,520,384.2,520,287C520,160.3,429.4,54.8,309.4,31.7z
            "/>
        </g>
        <g id="prdir" fill="#2f8072" stroke="none" transform="scale(0.045) translate(-120,-110)">
            <path d="m 123.26128,86.978581 c 18.82577,44.553579 49.3883,83.668249 88.99504,112.823219 l 13.14286,9.67529 19.35056,-26.28579 -13.14288,-9.6753 c -48.90863,-36.00213 -82.0864,-89.248139 -93.06868,-148.784267 -0.41821,3.388459 -0.84067,6.776544 -1.38405,10.135115 -0.71479,4.414539 -1.53825,8.802699 -2.4665,13.159243 -0.92827,4.356522 -1.96142,8.681077 -3.09918,12.972597 -1.13783,4.29153 -2.37906,8.548725 -3.72263,12.768192 -1.34347,4.219477 -2.7893,8.401749 -4.33462,12.542101 -0.0843,0.225621 -0.18516,0.444203 -0.26983,0.6696 z"/>
            <path d="M 75.718442,153.26162 C 104.98636,114.75421 123.69429,68.77552 129.26191,19.911403 L 131.11,3.6962133 98.679701,0 96.831616,16.215189 c -6.8752,60.340224 -36.536917,115.622081 -82.703477,154.785941 3.146986,-1.32416 6.295477,-2.64496 9.478901,-3.84526 4.184491,-1.57783 8.400149,-3.04828 12.640565,-4.41206 4.240448,-1.3638 8.505312,-2.62074 12.793675,-3.77041 4.288405,-1.14967 8.598496,-2.19255 12.926763,-3.12796 4.328223,-0.93542 8.675167,-1.76363 13.035327,-2.48458 0.237558,-0.0397 0.477344,-0.0609 0.715083,-0.0992 z"/>
            <path d="m 157.1558,160.72798 c -47.99747,-5.97319 -97.153016,0.93741 -142.205315,20.66035 L 0,187.93277 13.088864,217.83374 28.039371,211.2893 c 55.633098,-24.35505 118.334389,-26.46483 175.385289,-6.20773 -2.72531,-2.05645 -5.44858,-4.11594 -8.0852,-6.26617 -3.46574,-2.82628 -6.85428,-5.73346 -10.163,-8.71565 -3.30877,-2.98217 -6.53736,-6.03921 -9.68506,-9.17031 -3.14766,-3.13109 -6.2139,-6.33465 -9.19632,-9.60797 -2.98233,-3.27329 -5.88147,-6.61643 -8.69438,-10.02492 -0.15331,-0.18587 -0.29217,-0.38243 -0.44495,-0.5685 z"/>
        </g>
    </defs>

    <g id="cht_switch" style="opacity:0;cursor:pointer">
		<g id="cht_switch_base">
			<rect x="-690" y="-1040" width="10" height="10" style="fill:#fff;stroke:#000;stroke-width:1"/>
			<text x="-675" y="-1030" font-size="14px" class="stname">Traditional Chinese</text>
		</g>
		<g id="cht_switch_over" style="visibility:hidden;opacity:0">
            <use xlink:href="#enabled" x="-690" y="-1040"/>
			<text x="-675" y="-1030" style="stroke:#243588;stroke-width:0.5;font-size:14px" class="stname">Traditional Chinese</text>
			<set
			begin="cht_switch_base.click"
			end="cht_switch_over.click"
			attributeName="visibility" attributeType="CSS" to="visible"/>
			<set
			begin="cht_switch_base.click"
			end="cht_switch_over.click"
			attributeName="opacity" attributeType="CSS" to="1"/>
		</g>
		<animate
		attributeName="opacity" attributeType="CSS" values="0; 1" keyTimes="0; 1" dur="0.5s" fill="freeze"/>
	</g>

    <g class="RiverBG">
        <g id="Pearl_River">
            <!--TextGap: 18 LineGap:26-->
            <path id="PearlRiver_Nansha" d="
                M -200,164
                H -20 a 21,21 0 0,0 15,-6
                L 29,124 a 21,21 0 0,1 15,-6
                H 500
            "/>
            <path id="Houhangdao" d="
                M -198,164 a 21,21 0 0,1 15,6
                L 12,365 a 21,21 0 0,1 6,15
                V 448 a 21,21 0 0,0 21,21
                H 500
            "/>
        </g>
    </g>
    <use xlink:href="#Pearl_River" class="RiverFG"/>

    <g class="LineDiagram">
        <path id="TWL_route" class="ctwl" d="
            M -24,-91 a 21,21 0 0,1 21,21
            V 300
        "/>
        <path id="KTL_route" class="cktl" d="
            M 300,-91
            H 24 a 21,21 0 0,0 -21,21
            V 100
        "/>
        <path id="ERL_route" class="cerl" d="
            M 94,-200
            V 200
        "/>
        <path id="WRL_route" class="cwrl" d="
            M -100,195
            H 69 a 21,21 0 0,0 15,-6
            L 94,179
        "/>
        <path id="MOL_route" class="cmol" d="
            M 94,179
            L 268,5 a 21,21 0 0,0 6,-15
            V -150
        "/>
        <g class="cunknown">
            <path id="Guangshen_Railway" d="
                M 79,-200
                V 164
            "/>
        </g>
        <use xlink:href="#Guangshen_Railway" class="Railway"/>
    </g>

    <g id="Guangshen_Railway_station_icons">
        <path class="PaidTunnel" d="
            M 79,164 L 94,179
        "/>
        <use xlink:href="#int" x="79" y="164" id="Kowloon"/>
    </g>
    <g id="TWL_station_icons">
        <use xlink:href="#int" x="0" y="-60" id="PRE"/>
        <use xlink:href="#int" x="0" y="0" id="MKK"/>
        <use xlink:href="#int" x="0" y="60" id="YMT"/>
        <use xlink:href="#sttwl" transform="translate(-3,120)rotate(180)" id="JOR"/>
        <use xlink:href="#int" x="-3" y="180" id="TST"/>
    </g>
    <g id="KTL_station_icons">
        <use xlink:href="#int" x="274" y="-90" id="DIH"/>
        <use xlink:href="#stktl" transform="translate(214,-91)rotate(-90)" id="WTS"/>
        <use xlink:href="#stktl" transform="translate(154,-91)rotate(-90)" id="LOF"/>
        <use xlink:href="#int" x="94" y="-90" id="KOT"/>
        <use xlink:href="#stktl" transform="translate(34,-91)rotate(-90)" id="SKM"/>
        <!--PRE TWL-->
        <!--MKK TWL-->
        <!--YMT TWL-->
    </g>
    <g id="ERL_station_icons">
        <!--KOT KTL-->
        <use xlink:href="#int" x="94" y="179" id="HUH"/>
    </g>
    <g id="WRL_station_icons">
        <use xlink:href="#int" x="12" y="195" id="ETS"/>
    </g>

    <g id="Station_names_EN" font-size="8.5pt" style="visibility:visible">
        <g id="TWL_names_EN">
            <g text-anchor="start">

            </g>
            <g text-anchor="middle">

            </g>
            <g text-anchor="end">
                <text x="-11" y="-66" class="StationNameEN">Prince<tspan x="-11" dy="12" class="StationNameEN">Edward</tspan></text>
                <text x="-11" y="0" class="StationNameEN">Mong Kok</text>
                <text x="-11" y="60" class="StationNameEN">Yau Ma Tei</text>
            </g>
        </g>
        <g id="KTL_names_EN">
            <g text-anchor="start">
                <text x="103" y="-76" class="StationNameEN">Kowloon<tspan x="103" dy="12" class="StationNameEN">Tong</tspan></text>
            </g>
            <g text-anchor="middle">
                <text x="154" y="-105" class="StationNameEN">Lok Fu</text>
                <text x="34" y="-105" class="StationNameEN">Shek Kip Mei</text>
            </g>
        </g>
        <set begin="cht_switch_base.click" end="cht_switch_over.click" attributeName="visibility" attributeType="CSS" to="hidden"/>
    </g>

    <g id="Station_names_ZH" font-size="6.7pt" style="visibility:hidden">
        <g id="GZ1_names_ZH">
            <g text-anchor="start">
                <text x="9" y="14" class="StationNameZH">公園前</text>
                <text x="149" y="14" class="StationNameZH">烈士陵園</text>
            </g>
            <g text-anchor="middle">
                <text x="70" y="-14" class="StationNameZH">農講所</text>
            </g>
        </g>
        <g id="GZ13_names_ZH">
            <g text-anchor="start">
                
            </g>
            <g text-anchor="middle">
                <text x="70" y="-84" class="StationNameZH">倉邊路</text>
                <text x="239" y="-56" class="StationNameZH">農林下路</text>
                <text x="319" y="-56" class="StationNameZH">梅東路</text>
            </g>
        </g>
        <set begin="cht_switch_base.click" end="cht_switch_over.click" attributeName="visibility" attributeType="CSS" to="visible"/>
    </g>
</svg>