<svg 
width="590" height="320" 
xmlns="http://www.w3.org/2000/svg" version="1.1"
xmlns:xlink="http://www.w3.org/1999/xlink"
viewBox="60 10 295 160">
	<title>Line Diagram in SVG based on TfL Standard</title>

<style type="text/css">
.LineDiagram {fill:none;stroke-width:6}
.FlagBox {fill:none;stroke-width:8}
.FlagBoxNameEN {
    font-family:Arial,"Hiragino Mincho ProN","PingFang HK","Meiryo UI",Meiryo,"Microsoft Jhenghei UI","Arial Unicode MS",sans-serif;
    font-weight:bold;
    alignment-baseline:middle;
    text-anchor:middle;
    font-size:4.5pt;
}
.FlagBoxNameZH {
    font-family:Arial,"Hiragino Mincho ProN","PingFang HK","Meiryo UI",Meiryo,"Microsoft Jhenghei UI","Arial Unicode MS",sans-serif;
    font-weight:bold;
    alignment-baseline:central;
    text-anchor:middle;
    font-size:3.7pt;
}
.NonMetro {stroke:#fff;stroke-width:2}
.StationTick {fill:none;stroke-width:4}
.StationName {
    font-family:Arial,"Hiragino Mincho ProN","PingFang HK","Meiryo UI",Meiryo,"Microsoft Jhenghei UI","Arial Unicode MS",sans-serif;
    fill:#0019A8;
    font-weight:bold;
}
.sline1 {stroke:#F3D03E}
.sline8 {stroke:#008C95}
.sline11 {stroke:#470A68}
.TfLLU {fill:#0019A8}
.CorporateGrey {fill:#868F98}
</style>

    <defs>
        <path id="st" class="StationTick" d="M 2,0 H 7"/>
        <path id="term" class="StationTick" d="M -7,0 H 7"/>
        <path id="flagbox" class="FlagBox" d="M -30,0 H 30"/>
        <use xlink:href="#st" id="stline8" class="sline8"/>
        <use xlink:href="#term" id="termline8" class="sline8"/>
        <g id="fbenline1">
            <use xlink:href="#flagbox" class="sline1"/>
            <text class="FlagBoxNameEN" fill="#fff">Line 1</text>
        </g>
        <g id="fbzhline1">
            <use xlink:href="#flagbox" class="sline1"/>
            <text class="FlagBoxNameZH" fill="#fff">一號綫</text>
        </g>
        <g id="fbenline11">
            <use xlink:href="#flagbox" class="sline11"/>
            <text class="FlagBoxNameEN" fill="#fff">Line 11</text>
        </g>
        <g id="fbzhline11">
            <use xlink:href="#flagbox" class="sline11"/>
            <text class="FlagBoxNameZH" fill="#fff">十一號綫</text>
        </g>
        <g id="int">
            <circle cx="0" cy="0" r="9" fill="#000"/>
            <circle cx="0" cy="0" r="6" fill="#fff"/>
        </g>
        <g id="chinarail" transform="scale(0.0135) translate(-260,-305)" style="stroke:none;fill:#E60012">
            <path d="
                M169,273.5c0-19,14.7-34.8,33.7-36.3c18.9-1.5,38.1-2.2,57.4-2.2c19.3,0,38.4,0.8,57.3,2.2
                c19,1.5,33.7,17.3,33.7,36.3v47.3l-51.3,14.7c-11.2,3.2-18.9,13.4-18.9,25v147.8c0,17.4,12.2,32.3,29.3,35.7l110.6,22.1
        	    c4.9,1,8.4,5.2,8.4,10.2V599H91v-22.7c0-5,3.5-9.2,8.4-10.2L209.9,544c17-3.4,29.3-18.3,29.3-35.7V360.5c0-11.6-7.7-21.8-18.9-25
	            L169,320.8V273.5z M309.4,31.7c0.2-1.2,0.3-2.4,0.3-3.6c0-14-11.1-25.4-24.9-26C276.6,1.4,268.3,1,260,1c-8.3,0-16.6,0.4-24.7,1.1
	            c-13.9,0.6-24.9,12-24.9,26c0,1.2,0.1,2.5,0.3,3.6C90.6,54.8,0,160.3,0,287c0,97.2,53.4,182,132.4,226.6l36.8-48.1
	            C104.3,432.4,59.8,364.9,59.8,287c0-110.6,89.6-200.2,200.2-200.2S460.2,176.4,460.2,287c0,77.9-44.5,145.4-109.4,178.5
	            c15,19.6,25.6,33.5,36.8,48.1C466.6,469,520,384.2,520,287C520,160.3,429.4,54.8,309.4,31.7z
            "/>
        </g>
        <g id="prdir" fill="#2f8072" stroke="none" transform="scale(0.0375) translate(-120,-110)">
            <path d="m 123.26128,86.978581 c 18.82577,44.553579 49.3883,83.668249 88.99504,112.823219 l 13.14286,9.67529 19.35056,-26.28579 -13.14288,-9.6753 c -48.90863,-36.00213 -82.0864,-89.248139 -93.06868,-148.784267 -0.41821,3.388459 -0.84067,6.776544 -1.38405,10.135115 -0.71479,4.414539 -1.53825,8.802699 -2.4665,13.159243 -0.92827,4.356522 -1.96142,8.681077 -3.09918,12.972597 -1.13783,4.29153 -2.37906,8.548725 -3.72263,12.768192 -1.34347,4.219477 -2.7893,8.401749 -4.33462,12.542101 -0.0843,0.225621 -0.18516,0.444203 -0.26983,0.6696 z"/>
            <path d="M 75.718442,153.26162 C 104.98636,114.75421 123.69429,68.77552 129.26191,19.911403 L 131.11,3.6962133 98.679701,0 96.831616,16.215189 c -6.8752,60.340224 -36.536917,115.622081 -82.703477,154.785941 3.146986,-1.32416 6.295477,-2.64496 9.478901,-3.84526 4.184491,-1.57783 8.400149,-3.04828 12.640565,-4.41206 4.240448,-1.3638 8.505312,-2.62074 12.793675,-3.77041 4.288405,-1.14967 8.598496,-2.19255 12.926763,-3.12796 4.328223,-0.93542 8.675167,-1.76363 13.035327,-2.48458 0.237558,-0.0397 0.477344,-0.0609 0.715083,-0.0992 z"/>
            <path d="m 157.1558,160.72798 c -47.99747,-5.97319 -97.153016,0.93741 -142.205315,20.66035 L 0,187.93277 13.088864,217.83374 28.039371,211.2893 c 55.633098,-24.35505 118.334389,-26.46483 175.385289,-6.20773 -2.72531,-2.05645 -5.44858,-4.11594 -8.0852,-6.26617 -3.46574,-2.82628 -6.85428,-5.73346 -10.163,-8.71565 -3.30877,-2.98217 -6.53736,-6.03921 -9.68506,-9.17031 -3.14766,-3.13109 -6.2139,-6.33465 -9.19632,-9.60797 -2.98233,-3.27329 -5.88147,-6.61643 -8.69438,-10.02492 -0.15331,-0.18587 -0.29217,-0.38243 -0.44495,-0.5685 z"/>
        </g>
    </defs>

	<rect x="60" y="10" width="295" height="160" style="fill:#fff"/>
    
    <path stroke-width="6" class="sline8" d="M 90,50 H 340"/>
    <use xlink:href="#termline8" transform="translate(90,50)rotate(-90)"/>
    <use xlink:href="#stline8" transform="translate(160,50)rotate(90)"/>
    <use xlink:href="#int" transform="translate(230,50)"/>
    <use xlink:href="#int" transform="translate(300,50)"/>

    <path stroke-width="6" class="sline8" d="M 90,130 H 340"/>
    <use xlink:href="#termline8" transform="translate(90,130)rotate(-90)"/>
    <use xlink:href="#stline8" transform="translate(160,130)rotate(90)"/>
    <use xlink:href="#int" transform="translate(230,130)"/>
    <use xlink:href="#int" transform="translate(300,130)"/>

    <g class="StationName" font-size="8.5pt" text-anchor="middle">
        <text x="90" y="35" alignment-baseline="central">Station</text>
        <text x="160" y="65" alignment-baseline="central">Station<tspan x="160" dy="12" alignment-baseline="central">Name</tspan></text>
        <text x="230" y="35" alignment-baseline="central">Station</text>
        <use xlink:href="#chinarail" x="255" y="35"/>
        <use xlink:href="#fbenline1" x="230" y="65"/>
        <text x="300" y="23" alignment-baseline="central">Station<tspan x="300" dy="12" alignment-baseline="central">Name</tspan></text>
        <use xlink:href="#fbenline11" x="300" y="65"/>
    </g>

    <g class="StationName" font-size="6.7pt" text-anchor="middle">
        <text x="90" y="115" alignment-baseline="central">地鐵站</text>
        <text x="160" y="145" alignment-baseline="central">地鐵站<tspan x="160" dy="12" alignment-baseline="central">名稱</tspan></text>
        <text x="230" y="115" alignment-baseline="central">地鐵站</text>
        <use xlink:href="#chinarail" x="249" y="115"/>
        <use xlink:href="#fbzhline1" x="230" y="145"/>
        <text x="300" y="103" alignment-baseline="central">地鐵站<tspan x="300" dy="12" alignment-baseline="central">名稱</tspan></text>
        <use xlink:href="#fbzhline11" x="300" y="145"/>
    </g>
     
    
    <path stroke-width="0.1" stroke="#000" d="
        M 110,39 H 115
        M 135,61 H 140
        M 205,31 H 210
        M 205,39 H 210
        M 248.5,31 V 26
        M 251.5,31 V 26
        M 260,31 H 265
        M 260,39 H 265
        M 193,61 H 198
        M 193,63.4 H 198
        M 193,66.6 H 198
        M 193,69 H 198
        M 262,61 H 267
        M 262,69 H 267
        M 200,71 V 76
        M 260,71 V 76
        M 270,71 V 76
    "/>

    <text font-family="Arial" font-size="2pt" text-anchor="start" x="110" y="43" alignment-baseline="middle">1.33x</text>
    <text font-family="Arial" font-size="2pt" text-anchor="end" x="140" y="57" alignment-baseline="middle">1.33x</text>
    <text font-family="Arial" font-size="2pt" text-anchor="middle" x="207.5" y="35" alignment-baseline="middle">CH</text>
    <text font-family="Arial" font-size="2pt" text-anchor="middle" x="250" y="24" alignment-baseline="middle">0.5x</text>
    <text font-family="Arial" font-size="2pt" text-anchor="middle" x="262.5" y="35" alignment-baseline="middle">CH</text>
    <text font-family="Arial" font-size="2pt" text-anchor="end" x="198" y="57" alignment-baseline="middle">1.33x</text>
    <text font-family="Arial" font-size="2pt" text-anchor="end" x="192" y="62.2" alignment-baseline="middle">0.3CH</text>
    <text font-family="Arial" font-size="2pt" text-anchor="end" x="192" y="67.8" alignment-baseline="middle">0.3CH</text>
    <text font-family="Arial" font-size="2pt" text-anchor="middle" x="264.5" y="65" alignment-baseline="middle">CH</text>
    <text font-family="Arial" font-size="2pt" text-anchor="middle" x="230" y="73.5" alignment-baseline="middle">10x</text>
    <text font-family="Arial" font-size="2pt" text-anchor="middle" x="265" y="73.5" alignment-baseline="middle">min x</text>

    <path stroke-width="0.1" stroke="#000" d="
        M 105,119 H 110
        M 140,141 H 145
        M 210,111 H 215
        M 210,119 H 215
        M 242.8,111 V 106
        M 245.8,111 V 106
        M 255,111 H 260
        M 255,119 H 260
        M 193,141 H 198
        
        M 262,141 H 267
        M 262,149 H 267
        M 200,151 V 156
        M 260,151 V 156
        M 270,151 V 156
    "/>

    <text font-family="Arial" font-size="2pt" text-anchor="start" x="105" y="123" alignment-baseline="middle">1.33x</text>
    <text font-family="Arial" font-size="2pt" text-anchor="end" x="145" y="137" alignment-baseline="middle">1.33x</text>
    <text font-family="Arial" font-size="2pt" text-anchor="middle" x="212.5" y="115" alignment-baseline="middle">CH</text>
    <text font-family="Arial" font-size="2pt" text-anchor="middle" x="244.3" y="104" alignment-baseline="middle">0.5x</text>
    <text font-family="Arial" font-size="2pt" text-anchor="middle" x="257.5" y="115" alignment-baseline="middle">CH</text>
    <text font-family="Arial" font-size="2pt" text-anchor="end" x="198" y="137" alignment-baseline="middle">1.33x</text>
    <text font-family="Arial" font-size="2pt" text-anchor="middle" x="264.5" y="145" alignment-baseline="middle">CH</text>
    <text font-family="Arial" font-size="2pt" text-anchor="middle" x="230" y="153.5" alignment-baseline="middle">10x</text>
    <text font-family="Arial" font-size="2pt" text-anchor="middle" x="265" y="153.5" alignment-baseline="middle">min x</text>

	<rect x="60" y="10" width="295" height="160" style="fill:none;stroke:blue;stroke-width:0.2"/>
</svg>